<?xml version="1.0" encoding="UTF-8"?>
<svg width="151px" height="25px" viewBox="0 0 151 25" version="1.1" xmlns="http://www.w3.org/2000/svg" xmlns:xlink="http://www.w3.org/1999/xlink">
    <!-- Generator: Sketch 52.6 (67491) - http://www.bohemiancoding.com/sketch -->
    <title>Group 2</title>
    <desc>Created with Sketch.</desc>
    <g id="Symbols" stroke="none" stroke-width="1" fill="none" fill-rule="evenodd">
        <g id="Desktop/MenuHeader/LoggedOff" transform="translate(-633.000000, -16.000000)">
            <g id="Group-2" transform="translate(633.000000, 6.000000)">
                <g id="Group" transform="translate(19.000000, 0.000000)" fill="#FFFFFF" font-family="Lato-Regular, Lato" font-size="29.1" font-weight="normal" letter-spacing="-0.421519709">
                    <text id="seequence">
                        <tspan x="0.224224224" y="29">seequence</tspan>
                    </text>
                </g>
                <g id="Group" transform="translate(0.000000, 10.000000)" fill-rule="nonzero">
                    <polygon id="Triangle" fill="#00C3FF" points="9.33333333 0 14 4.8 4.66666667 4.8"></polygon>
                    <polygon id="Triangle" fill="#338AA5" transform="translate(9.333333, 7.200000) rotate(180.000000) translate(-9.333333, -7.200000) " points="9.33333333 4.8 14 9.6 4.66666667 9.6"></polygon>
                    <polygon id="Triangle" fill="#B571FF" points="4.66666667 4.8 9.33333333 9.6 0 9.6"></polygon>
                    <polygon id="Triangle" fill="#640FC2" transform="translate(4.666667, 12.000000) rotate(180.000000) translate(-4.666667, -12.000000) " points="4.66666667 9.6 9.33333333 14.4 2.84217094e-14 14.4"></polygon>
                    <polygon id="Triangle" fill="#CD1BAB" points="9.33333333 9.6 14 14.4 4.66666667 14.4"></polygon>
                    <polygon id="Triangle" fill="#AC108E" transform="translate(9.333333, 16.800000) rotate(180.000000) translate(-9.333333, -16.800000) " points="9.33333333 14.4 14 19.2 4.66666667 19.2"></polygon>
                    <polygon id="Triangle" fill="#00FF6E" points="4.66666667 14.4 9.33333333 19.2 0 19.2"></polygon>
                    <polygon id="Triangle" fill="#04B967" transform="translate(4.666667, 21.600000) rotate(180.000000) translate(-4.666667, -21.600000) " points="4.66666667 19.2 9.33333333 24 0 24"></polygon>
                </g>
            </g>
        </g>
    </g>
</svg>