<?xml version="1.0" encoding="UTF-8"?>
<svg width="85px" height="27px" viewBox="0 0 85 27" version="1.1" xmlns="http://www.w3.org/2000/svg" xmlns:xlink="http://www.w3.org/1999/xlink">
    <!-- Generator: Sketch 52.6 (67491) - http://www.bohemiancoding.com/sketch -->
    <title>Group 2</title>
    <desc>Created with Sketch.</desc>
    <g id="Symbols" stroke="none" stroke-width="1" fill="none" fill-rule="evenodd">
        <g id="Artboard" transform="translate(-347.000000, -44.000000)">
            <g id="Group-2" transform="translate(341.000000, 42.000000)">
                <path d="M46.214,24.467 L43.332,24.467 C43.0093317,24.467 42.743501,24.3918341 42.5345,24.2415 C42.325499,24.0911659 42.1806671,23.8986678 42.1,23.664 L41.154,20.87 L35.06,20.87 L34.114,23.664 C34.0406663,23.8693344 33.8976677,24.0544992 33.685,24.2195 C33.4723323,24.3845008 33.2120015,24.467 32.904,24.467 L30,24.467 L36.204,8.44 L40.01,8.44 L46.214,24.467 Z M35.918,18.34 L40.296,18.34 L38.822,13.951 C38.7266662,13.6723319 38.614834,13.3441686 38.4865,12.9665 C38.358166,12.5888314 38.2316673,12.1800022 38.107,11.74 C37.9896661,12.1873356 37.8686673,12.6016648 37.744,12.983 C37.6193327,13.3643352 37.5020005,13.6943319 37.392,13.973 L35.918,18.34 Z M50.6033249,8 L50.6033249,17.229 L51.1093249,17.229 C51.3219926,17.229 51.4851577,17.199667 51.5988249,17.141 C51.7124921,17.082333 51.8206577,16.9760008 51.9233249,16.822 L54.0793249,13.61 C54.2039922,13.4193324 54.3524907,13.2800004 54.5248249,13.192 C54.6971591,13.1039996 54.9153236,13.06 55.1793249,13.06 L58.3033249,13.06 L55.3553249,17.119 C55.2159909,17.3096676 55.0638257,17.4783326 54.8988249,17.625 C54.7338241,17.7716674 54.5559925,17.9036661 54.3653249,18.021 C54.6953265,18.2703346 54.9813237,18.6003313 55.2233249,19.011 L58.4353249,24.467 L55.3553249,24.467 C55.0986569,24.467 54.8768258,24.4248338 54.6898249,24.3405 C54.502824,24.2561662 54.3506588,24.1076677 54.2333249,23.895 L52.0773249,19.858 C51.9746577,19.6746658 51.8683254,19.5555003 51.7583249,19.5005 C51.6483243,19.4454997 51.483326,19.418 51.2633249,19.418 L50.6033249,19.418 L50.6033249,24.467 L47.1933249,24.467 L47.1933249,8 L50.6033249,8 Z M63.9686498,12.884 C64.8339875,12.884 65.6223129,13.0196653 66.3336498,13.291 C67.0449867,13.5623347 67.6554806,13.9509975 68.1651498,14.457 C68.674819,14.9630025 69.0708151,15.5771631 69.3531498,16.2995 C69.6354845,17.0218369 69.7766498,17.8339955 69.7766498,18.736 C69.7766498,19.6453379 69.6354845,20.4648297 69.3531498,21.1945 C69.0708151,21.9241703 68.674819,22.5438308 68.1651498,23.0535 C67.6554806,23.5631692 67.0449867,23.9554986 66.3336498,24.2305 C65.6223129,24.5055014 64.8339875,24.643 63.9686498,24.643 C63.0959788,24.643 62.3021534,24.5055014 61.5871498,24.2305 C60.8721462,23.9554986 60.2561524,23.5631692 59.7391498,23.0535 C59.2221472,22.5438308 58.8224845,21.9241703 58.5401498,21.1945 C58.2578151,20.4648297 58.1166498,19.6453379 58.1166498,18.736 C58.1166498,17.8339955 58.2578151,17.0218369 58.5401498,16.2995 C58.8224845,15.5771631 59.2221472,14.9630025 59.7391498,14.457 C60.2561524,13.9509975 60.8721462,13.5623347 61.5871498,13.291 C62.3021534,13.0196653 63.0959788,12.884 63.9686498,12.884 Z M63.9686498,22.113 C64.7533204,22.113 65.3308146,21.8361694 65.7011498,21.2825 C66.071485,20.7288306 66.2566498,19.887339 66.2566498,18.758 C66.2566498,17.628661 66.071485,16.7890028 65.7011498,16.239 C65.3308146,15.6889973 64.7533204,15.414 63.9686498,15.414 C63.1619791,15.414 62.5716517,15.6889973 62.1976498,16.239 C61.8236479,16.7890028 61.6366498,17.628661 61.6366498,18.758 C61.6366498,19.887339 61.8236479,20.7288306 62.1976498,21.2825 C62.5716517,21.8361694 63.1619791,22.113 63.9686498,22.113 Z M71.3279747,24.467 L71.3279747,13.06 L73.3519747,13.06 C73.5206422,13.06 73.6618075,13.0746665 73.7754747,13.104 C73.8891419,13.1333335 73.9844743,13.1791664 74.0614747,13.2415 C74.1384751,13.3038336 74.1971412,13.3863328 74.2374747,13.489 C74.2778082,13.5916672 74.3126412,13.7163326 74.3419747,13.863 L74.5289747,14.93 C74.9469768,14.2846634 75.4163054,13.7750019 75.9369747,13.401 C76.457644,13.0269981 77.0259716,12.84 77.6419747,12.84 C78.162644,12.84 78.5806398,12.9646654 78.8959747,13.214 L78.4559747,15.722 C78.4266412,15.8760008 78.3679751,15.9841664 78.2799747,16.0465 C78.1919743,16.1088336 78.0746421,16.14 77.9279747,16.14 C77.8033074,16.14 77.6566422,16.1235002 77.4879747,16.0905 C77.3193072,16.0574998 77.1066426,16.041 76.8499747,16.041 C75.9553036,16.041 75.2513106,16.5176619 74.7379747,17.471 L74.7379747,24.467 L71.3279747,24.467 Z M80.0952996,24.467 L80.0952996,13.06 L82.2072996,13.06 C82.4199673,13.06 82.5977989,13.1076662 82.7407996,13.203 C82.8838003,13.2983338 82.9846326,13.4413324 83.0432996,13.632 L83.2412996,14.292 C83.4613007,14.0866656 83.6886318,13.8960009 83.9232996,13.72 C84.1579674,13.5439991 84.4091316,13.3955006 84.6767996,13.2745 C84.9444676,13.1534994 85.2341314,13.058167 85.5457996,12.9885 C85.8574678,12.918833 86.1966311,12.884 86.5632996,12.884 C87.186636,12.884 87.7384639,12.9921656 88.2187996,13.2085 C88.6991353,13.4248344 89.1042979,13.7254981 89.4342996,14.1105 C89.7643012,14.4955019 90.0136321,14.9538307 90.1822996,15.4855 C90.3509671,16.0171693 90.4352996,16.5946636 90.4352996,17.218 L90.4352996,24.467 L87.0252996,24.467 L87.0252996,17.218 C87.0252996,16.6606639 86.8969675,16.2261682 86.6402996,15.9145 C86.3836316,15.6028318 86.0059688,15.447 85.5072996,15.447 C85.1332977,15.447 84.7813012,15.5276659 84.4512996,15.689 C84.1212979,15.8503341 83.8059678,16.0666653 83.5052996,16.338 L83.5052996,24.467 L80.0952996,24.467 Z" id="Akorn" fill="#790000"></path>
                <g id="acorn" transform="translate(16.000000, 16.000000) rotate(-46.000000) translate(-16.000000, -16.000000) translate(5.000000, 5.000000)">
                    <path d="M7.07282932,2.6706033 L2.78510905,6.95832357 C0.0203027344,9.72317166 -0.77,13.8987256 0.793185221,17.4827013 L1.73859918,19.6502897 L3.90618761,20.5957037 C7.4901633,22.1588889 11.6657172,21.3685862 14.4305653,18.6037798 L18.7182856,14.3160596 L7.07282932,2.6706033 Z" id="Path" fill="#A23030"></path>
                    <g id="Group" transform="translate(1.712782, 0.751953)">
                        <path d="M0.0258170573,18.8983366 L2.19340549,19.8437505 C5.77738118,21.4069358 9.95293511,20.616633 12.7177832,17.8518267 L17.0055035,13.5641064 L11.1827544,7.7413992 L0.0258170573,18.8983366 Z" id="Path" fill="#840101"></path>
                        <polygon id="Rectangle" fill="#910000" transform="translate(16.849182, 2.074857) rotate(-135.000000) translate(-16.849182, -2.074857) " points="16.2225608 -0.177200492 17.475804 -0.177200492 17.475804 4.32691376 16.2225608 4.32691376"></polygon>
                    </g>
                    <g id="Group" transform="translate(5.806749, 0.000000)">
                        <polygon id="Rectangle" fill="#790000" transform="translate(12.977059, 3.048571) rotate(45.000000) translate(-12.977059, -3.048571) " points="12.6637484 0.796514149 13.29037 0.796514149 13.29037 5.3006284 12.6637484 5.3006284"></polygon>
                        <path d="M13.3446615,4.77369086 L10.8084489,2.2374783 C7.82515842,-0.745812174 2.98830349,-0.745812174 0.00501302083,2.2374783 L13.3446615,15.5771267 C16.3279519,12.5938363 16.3279519,7.75698134 13.3446615,4.77369086 Z" id="Path" fill="#910000"></path>
                    </g>
                    <path d="M17.8833252,3.50556369 L12.4815864,8.90730252 L19.1514106,15.5771267 C22.1347011,12.5938363 22.1347011,7.75698134 19.1514106,4.77369086 L17.8833252,3.50556369 Z" id="Path" fill="#790000"></path>
                </g>
            </g>
        </g>
    </g>
</svg>