<?xml version="1.0" encoding="UTF-8"?>
<svg width="822px" height="658px" viewBox="0 0 822 658" version="1.1" xmlns="http://www.w3.org/2000/svg" xmlns:xlink="http://www.w3.org/1999/xlink">
    <!-- Generator: Sketch 52.6 (67491) - http://www.bohemiancoding.com/sketch -->
    <title>undraw_setup_analytics_8qkl (1)</title>
    <desc>Created with Sketch.</desc>
    <defs>
        <linearGradient x1="49.9994739%" y1="100%" x2="49.9994739%" y2="0%" id="linearGradient-1">
            <stop stop-color="#808080" stop-opacity="0.25" offset="0%"></stop>
            <stop stop-color="#808080" stop-opacity="0.12" offset="54%"></stop>
            <stop stop-color="#808080" stop-opacity="0.1" offset="100%"></stop>
        </linearGradient>
        <linearGradient x1="53.7124043%" y1="100.268653%" x2="46.1399664%" y2="-0.806583791%" id="linearGradient-2">
            <stop stop-color="#808080" stop-opacity="0.25" offset="0%"></stop>
            <stop stop-color="#808080" stop-opacity="0.12" offset="54%"></stop>
            <stop stop-color="#808080" stop-opacity="0.1" offset="100%"></stop>
        </linearGradient>
    </defs>
    <g id="Page-1" stroke="none" stroke-width="1" fill="none" fill-rule="evenodd">
        <g id="Desktop/ClipsView" transform="translate(-295.000000, -293.000000)">
            <g id="undraw_setup_analytics_8qkl-(1)" transform="translate(295.000000, 293.000000)">
                <path d="M363.255233,157.808068 C319.380584,179.882649 271.395934,189.508797 224.6107,196.928287 C177.825467,204.347776 130.600447,210.064301 84.4948833,225.574872 C54.8453113,235.552807 23.5085603,251.710984 8.89167315,276.815723 C-5.19747082,300.921069 0.00799610895,326.625443 7.46036965,349.027825 C13.0576459,365.873584 20.254144,382.919222 35.5746887,393.216962 C46.2255058,400.364617 60.0507782,403.714581 71.6611284,409.798882 C112.049475,430.946027 118.598288,480.547874 112.089455,526.176136 C109.034942,547.579125 103.789494,569.261944 103.861459,590.241191 C103.933424,611.220437 109.986479,632.007801 126.634377,644.400267 C143.138346,656.680802 167.918288,659.175286 192.202471,657.192491 C241.546459,653.194921 291.162315,632.735358 338.419319,610.748724 C443.056401,562.082309 543.287626,504.06158 643.286965,446.184763 C680.276965,424.765784 717.434883,403.242868 751.490311,377.874289 C770.401109,363.786853 789.072023,347.60469 797.803774,328.240462 C808.926362,303.663402 800.44249,276.887679 778.021401,265.830401 C740.439689,247.281677 677.606265,271.738809 645.198035,247.513536 C627.294747,234.177643 624.959883,209.776476 627.878463,186.870401 C634.13142,137.652321 659.974844,83.4052977 640.248444,41.7586148 C626.703035,13.1520049 591.056381,-3.49387606 552.131323,0.623620899 C511.351167,4.94099635 466.15716,31.7486999 454.003074,67.8867315 C441.513152,105.104107 401.996381,138.275942 363.255233,157.808068 Z" id="Path" fill="#790000"></path>
                <ellipse id="Oval" fill="#790000" opacity="0.1" cx="468.444047" cy="608.685978" rx="80.0490467" ry="19.7719806"></ellipse>
                <rect id="Rectangle" fill="url(#linearGradient-1)" x="62.0977821" y="108.502041" width="759.894222" height="430.402357" rx="9.992"></rect>
                <rect id="Rectangle" fill="#FFFFFF" x="63.3051946" y="114.554362" width="757.567354" height="422.918906" rx="9.992"></rect>
                <rect id="Rectangle" fill="#FFFFFF" x="63.3051946" y="114.554362" width="757.567354" height="422.918906" rx="9.992"></rect>
                <rect id="Rectangle" fill="#5A5773" opacity="0.04" x="63.3051946" y="114.554362" width="757.567354" height="422.918906" rx="9.992"></rect>
                <path d="M817.034416,109.701312 L67.1593191,109.701312 C65.035161,109.701312 63.3131907,111.423074 63.3131907,113.546974 L63.3131907,129.825079 L820.880545,129.825079 L820.880545,113.546974 C820.880545,111.423074 819.158574,109.701312 817.034416,109.701312 Z" id="Path" fill="#5A5773"></path>
                <g id="4856ee63-6c9d-47e3-9e79-3603b2312fc4" transform="translate(72.764591, 114.330498)" fill="#FFFFFF">
                    <ellipse id="Oval" cx="5.66924125" cy="5.42070474" rx="5.19747082" ry="5.19684083"></ellipse>
                    <ellipse id="Oval" cx="19.6624319" cy="5.42070474" rx="5.19747082" ry="5.19684083"></ellipse>
                    <ellipse id="Oval" cx="33.6556226" cy="5.42070474" rx="5.19747082" ry="5.19684083"></ellipse>
                </g>
                <rect id="Rectangle" fill="#FDE6D6" x="114.016518" y="223.44017" width="631.692607" height="243.052248" rx="8.152"></rect>
                <path d="M134.369282,207.687343 L749.75864,207.687343 C754.260865,207.687343 757.91064,211.337118 757.91064,215.839343 L757.91064,442.589611 C757.91064,447.091836 754.260865,450.741611 749.75864,450.741611 L134.369282,450.741611 C129.867056,450.741611 126.217282,447.091836 126.217282,442.589611 L126.217282,215.839343 C126.217282,211.337118 129.867056,207.687343 134.369282,207.687343 Z" id="Rectangle" fill="#FFFFFF" transform="translate(442.063961, 329.214477) rotate(1.460000) translate(-442.063961, -329.214477) "></path>
                <path d="M223.907043,251.255261 L663.948911,262.440462" id="Path" stroke="#5A5773" stroke-width="0.8" fill="#F4F4F7" opacity="0.2"></path>
                <path d="M223.035467,285.626367 L663.077335,296.811567" id="Path" stroke="#5A5773" stroke-width="0.8" fill="#F4F4F7" opacity="0.2"></path>
                <path d="M222.163891,319.989478 L662.205759,331.174678" id="Path" stroke="#5A5773" stroke-width="0.8" fill="#F4F4F7" opacity="0.2"></path>
                <path d="M221.284319,354.360583 L661.334183,365.545784" id="Path" stroke="#5A5773" stroke-width="0.8" fill="#F4F4F7" opacity="0.2"></path>
                <path d="M261.280856,346.045638 L260.169397,389.739077" id="Path" stroke="#5A5773" stroke-width="0.8" opacity="0.2" stroke-dasharray="9.600000000000001"></path>
                <path d="M220.412743,388.731689 L660.454611,399.908894" id="Path" stroke="#5A5773" stroke-width="0.8" fill="#F4F4F7" opacity="0.2"></path>
                <path d="M309.937179,391.002309 L311.592374,325.865905" id="Path" stroke="#5A5773" stroke-width="0.8" opacity="0.2" stroke-dasharray="9.600000000000001"></path>
                <path d="M601.035525,320.717035 C593.191342,321.396622 585.53107,316.999295 580.837354,312.378104 C575.97572,307.581021 572.449436,301.680608 569.043093,295.940097 C567.963619,294.1252 566.844163,292.254338 565.716712,290.447436 C559.775603,281.029162 553.84249,274.697011 547.053794,270.515553 C544.566363,268.983885 541.899527,267.764754 539.113658,266.885759 C538.846344,267.520592 538.464123,268.100631 537.986206,268.596719 C536.959381,269.665907 535.550278,270.284112 534.068113,270.315674 L533.804241,270.315674 C531.057714,270.241781 528.770901,268.185592 528.406868,265.462625 C525.888626,265.582061 523.404213,266.09183 521.042451,266.973706 C514.061848,269.604107 508.760428,275.256671 503.938774,280.829283 C498.101615,287.561191 492.472354,294.620899 487.226907,301.82452 C486.160759,303.279635 485.094611,304.742746 484.028463,306.213852 C478.335233,314.161021 472.450097,322.372029 464.837802,328.792126 C454.618774,337.458858 442.328755,341.192588 431.957802,338.786051 C419.515856,335.899806 410.616187,324.906488 404.25928,315.648117 C403.459669,314.448846 402.660058,313.249575 401.796479,312.026318 C395.863366,303.231665 389.73035,294.141191 380.678755,288.840413 C368.756556,281.844666 352.292568,283.051932 341.497821,291.694678 C336.236381,295.908117 332.286304,301.632637 328.456167,307.165273 C327.144805,309.068117 325.785467,311.034921 324.386148,312.921774 C317.18965,322.587898 309.937179,327.83271 302.116984,328.968019 C299.016003,329.31186 295.886507,329.31186 292.785525,328.968019 C290.722529,328.824107 288.587568,328.664204 286.500584,328.72017 C275.909683,329.172084 266.330102,335.140013 261.256868,344.44661 L260.153405,390.466634 L605.833191,399.261288 L607.768249,323.123572 C606.569947,323.775134 605.150917,323.885889 603.866013,323.42814 C602.581109,322.970391 601.551815,321.987418 601.035525,320.72503 L601.035525,320.717035 Z" id="Path" fill="#790000" opacity="0.2"></path>
                <path d="M363.782977,284.291179 L361.040311,392.305516" id="Path" stroke="#5A5773" stroke-width="0.8" opacity="0.2" stroke-dasharray="9.600000000000001"></path>
                <path d="M411.991518,325.618056 L410.264358,393.552758" id="Path" stroke="#5A5773" stroke-width="0.8" opacity="0.2" stroke-dasharray="9.600000000000001"></path>
                <path d="M459.936187,333.58921 L458.384942,394.776015" id="Path" stroke="#5A5773" stroke-width="0.8" opacity="0.2" stroke-dasharray="9.600000000000001"></path>
                <path d="M506.465545,278.830498 L503.490992,395.91932" id="Path" stroke="#5A5773" stroke-width="0.8" opacity="0.2" stroke-dasharray="9.600000000000001"></path>
                <path d="M553.818502,274.744982 L550.708016,397.126586" id="Path" stroke="#5A5773" stroke-width="0.8" opacity="0.2" stroke-dasharray="9.600000000000001"></path>
                <path d="M606.264981,320.757011 L604.281946,398.485759" id="Path" stroke="#5A5773" stroke-width="0.8" opacity="0.2" stroke-dasharray="9.600000000000001"></path>
                <path d="M538.633891,261.48904 C537.561286,260.458895 536.122749,259.897934 534.635837,259.929988 C531.913696,259.979735 529.622192,261.980761 529.206479,264.671106 C529.156816,264.98839 529.135409,265.309455 529.14251,265.630522 C529.14251,265.846391 529.14251,266.06226 529.190486,266.270134 C529.360419,267.522745 529.949453,268.680944 530.861673,269.556136 C531.854345,270.544769 533.187304,271.116785 534.58786,271.155164 L534.851732,271.155164 C536.335526,271.127809 537.747721,270.512386 538.777821,269.444204 C539.253352,268.946213 539.635268,268.366637 539.905272,267.733244 C540.113941,267.235861 540.248638,266.710604 540.305078,266.174192 C540.324996,265.932082 540.324996,265.688745 540.305078,265.446634 C540.29672,263.957677 539.695298,262.53343 538.633891,261.48904 Z M538.354027,267.245541 C538.175196,267.634862 537.928846,267.989455 537.626381,268.292904 C536.584237,269.368681 535.028116,269.771758 533.594666,269.337228 C532.161216,268.902698 531.090932,267.703462 530.821693,266.230158 C530.77759,266.0224 530.753492,265.810895 530.749728,265.598542 C530.741245,265.275975 530.773484,264.953625 530.845681,264.639125 C531.250188,262.844083 532.827905,261.55698 534.667821,261.521021 L534.851732,261.521021 C536.98538,261.576006 538.699589,263.297047 538.745837,265.430644 C538.745837,265.510595 538.745837,265.598542 538.745837,265.678493 C538.731672,266.223241 538.597912,266.758216 538.354027,267.245541 Z" id="Shape" fill="#790000" fill-rule="nonzero"></path>
                <ellipse id="Oval" fill="#790000" cx="606.312957" cy="319.709648" rx="4.79766537" ry="4.79708384"></ellipse>
                <path d="M530.749728,265.598542 C530.753492,265.810895 530.77759,266.0224 530.821693,266.230158 C530.277957,266.230158 529.734222,266.230158 529.222471,266.270134 C526.701738,266.390417 524.21482,266.900147 521.850058,267.781215 C514.869455,270.411616 509.568035,276.06418 504.738385,281.636792 C498.901226,288.360705 493.271965,295.428408 488.018521,302.624034 C486.955039,304.079149 485.907549,305.550255 484.820078,307.021361 C479.118852,314.96853 473.233716,323.171543 465.629416,329.599635 C455.402393,338.258372 443.104377,341.992102 432.725428,339.585565 C420.299475,336.707315 411.399805,325.706002 405.002918,316.447631 C404.203307,315.256355 403.35572,314.049089 402.540117,312.825832 C396.599008,304.031179 390.457996,294.940705 381.406401,289.639927 C369.484202,282.64418 353.004222,283.851446 342.225467,292.494192 C337.035992,296.699635 333.037938,302.424156 329.207802,307.956792 C327.888444,309.859635 326.529105,311.834435 325.129786,313.713293 C317.933288,323.379417 310.672821,328.624228 302.852626,329.759538 C299.751421,330.099311 296.622373,330.099311 293.521167,329.759538 C291.429172,329.568894 289.328741,329.486167 287.22823,329.511689 C275.850234,329.984939 265.708858,336.825441 261.008988,347.196938 L259.537704,346.557327 C264.497657,335.627089 275.186699,328.417421 287.180253,327.912661 C289.336915,327.881024 291.493704,327.966431 293.641109,328.168505 C296.62556,328.49231 299.636289,328.49231 302.620739,328.168505 C310.001148,327.105152 316.94177,322.060219 323.842412,312.753876 C325.225739,310.891009 326.577082,308.932199 327.888444,307.037351 C331.782549,301.440753 335.812588,295.596306 341.249942,291.23096 C353.040432,282.009683 369.236618,280.831289 382.237996,288.248773 C391.609436,293.741434 397.854397,302.983815 403.899455,311.930377 C404.699066,313.129648 405.498677,314.328919 406.354261,315.536185 C412.551245,324.554702 421.187043,335.260194 433.109241,338.018518 C442.992432,340.313123 454.7707,336.707315 464.613911,328.368384 C472.042296,322.076209 477.887451,313.977132 483.524708,306.077934 C484.572198,304.606829 485.635681,303.135723 486.723152,301.672612 C492.00858,294.476987 497.661829,287.345322 503.514981,280.573439 C508.480564,274.848919 513.909922,269.036452 521.274339,266.278129 C523.824633,265.335799 526.506139,264.796326 529.222471,264.679101 C529.75821,264.679101 530.309942,264.63113 530.821693,264.679101 C530.760827,264.981574 530.736664,265.290283 530.749728,265.598542 Z" id="Path" fill="#790000"></path>
                <path d="M606.592821,320.461191 C597.213385,323.963062 587.29821,318.734241 581.652957,313.185614 C576.791323,308.38853 573.265039,302.480122 569.858696,296.739611 C568.779222,294.93271 567.659767,293.053852 566.524319,291.254945 C560.58321,281.828676 554.650097,275.496525 547.853405,271.315067 C545.36497,269.787321 542.698295,268.570949 539.913268,267.693269 C539.401518,267.525371 538.88177,267.381458 538.314047,267.245541 C538.556799,266.760646 538.690528,266.228524 538.705856,265.686488 C539.233599,265.822406 539.753346,265.974313 540.305078,266.134216 C543.24371,267.055297 546.056038,268.339088 548.677004,269.955893 C555.697588,274.265273 561.790623,280.757327 567.867665,290.399465 C569.011109,292.222357 570.130564,294.101215 571.226031,295.932102 C574.584397,301.576671 578.054708,307.421118 582.764416,312.042309 C588.065837,317.25514 597.349319,322.204131 606.025097,318.9661 L606.592821,320.461191 Z" id="Path" fill="#790000"></path>
                <path d="M224.703234,244.292867 L239.575321,244.292867 C239.972966,244.292867 240.295321,244.615222 240.295321,245.012867 L240.295321,250.768548 C240.295321,251.166193 239.972966,251.488548 239.575321,251.488548 L224.703234,251.488548 C224.305589,251.488548 223.983234,251.166193 223.983234,250.768548 L223.983234,245.012867 C223.983234,244.615222 224.305589,244.292867 224.703234,244.292867 Z" id="Rectangle" fill="#790000" opacity="0.5" transform="translate(232.139277, 247.890708) rotate(1.460000) translate(-232.139277, -247.890708) "></path>
                <path d="M223.819877,278.654395 L238.691965,278.654395 C239.08961,278.654395 239.411965,278.97675 239.411965,279.374395 L239.411965,285.130076 C239.411965,285.527721 239.08961,285.850076 238.691965,285.850076 L223.819877,285.850076 C223.422232,285.850076 223.099877,285.527721 223.099877,285.130076 L223.099877,279.374395 C223.099877,278.97675 223.422232,278.654395 223.819877,278.654395 Z" id="Rectangle" fill="#790000" transform="translate(231.255921, 282.252235) rotate(1.460000) translate(-231.255921, -282.252235) "></path>
                <path d="M222.944311,313.032113 L237.816399,313.032113 C238.214044,313.032113 238.536399,313.354468 238.536399,313.752113 L238.536399,319.507794 C238.536399,319.905439 238.214044,320.227794 237.816399,320.227794 L222.944311,320.227794 C222.546666,320.227794 222.224311,319.905439 222.224311,319.507794 L222.224311,313.752113 C222.224311,313.354468 222.546666,313.032113 222.944311,313.032113 Z" id="Rectangle" fill="#790000" opacity="0.5" transform="translate(230.380355, 316.629954) rotate(1.460000) translate(-230.380355, -316.629954) "></path>
                <path d="M222.068949,347.393844 L236.941036,347.393844 C237.338681,347.393844 237.661036,347.716199 237.661036,348.113844 L237.661036,353.869526 C237.661036,354.267171 237.338681,354.589526 236.941036,354.589526 L222.068949,354.589526 C221.671304,354.589526 221.348949,354.267171 221.348949,353.869526 L221.348949,348.113844 C221.348949,347.716199 221.671304,347.393844 222.068949,347.393844 Z" id="Rectangle" fill="#790000" opacity="0.5" transform="translate(229.504992, 350.991685) rotate(1.460000) translate(-229.504992, -350.991685) "></path>
                <path d="M221.193382,381.763568 L236.06547,381.763568 C236.463115,381.763568 236.78547,382.085923 236.78547,382.483568 L236.78547,388.239249 C236.78547,388.636894 236.463115,388.959249 236.06547,388.959249 L221.193382,388.959249 C220.795737,388.959249 220.473382,388.636894 220.473382,388.239249 L220.473382,382.483568 C220.473382,382.085923 220.795737,381.763568 221.193382,381.763568 Z" id="Rectangle" fill="#790000" opacity="0.5" transform="translate(228.629426, 385.361409) rotate(1.460000) translate(-228.629426, -385.361409) "></path>
                <path d="M251.446166,396.92852 L266.318253,396.92852 C266.715898,396.92852 267.038253,397.250875 267.038253,397.64852 L267.038253,403.404202 C267.038253,403.801847 266.715898,404.124202 266.318253,404.124202 L251.446166,404.124202 C251.048521,404.124202 250.726166,403.801847 250.726166,403.404202 L250.726166,397.64852 C250.726166,397.250875 251.048521,396.92852 251.446166,396.92852 Z" id="Rectangle" fill="#790000" opacity="0.5" transform="translate(258.882209, 400.526361) rotate(1.460000) translate(-258.882209, -400.526361) "></path>
                <path d="M302.204162,398.221245 L317.07625,398.221245 C317.473895,398.221245 317.79625,398.5436 317.79625,398.941245 L317.79625,404.696926 C317.79625,405.094571 317.473895,405.416926 317.07625,405.416926 L302.204162,405.416926 C301.806517,405.416926 301.484162,405.094571 301.484162,404.696926 L301.484162,398.941245 C301.484162,398.5436 301.806517,398.221245 302.204162,398.221245 Z" id="Rectangle" fill="#790000" opacity="0.5" transform="translate(309.640206, 401.819085) rotate(1.460000) translate(-309.640206, -401.819085) "></path>
                <path d="M351.478669,401.706469 L366.358099,401.706469 C366.755744,401.706469 367.078099,402.028824 367.078099,402.426469 L367.078099,408.185398 C367.078099,408.583043 366.755744,408.905398 366.358099,408.905398 L351.478669,408.905398 C351.081024,408.905398 350.758669,408.583043 350.758669,408.185398 L350.758669,402.426469 C350.758669,402.028824 351.081024,401.706469 351.478669,401.706469 Z" id="Rectangle" fill="#790000" transform="translate(358.918384, 405.305933) rotate(1.718358) translate(-358.918384, -405.305933) "></path>
                <path d="M402.529733,400.776348 L417.401821,400.776348 C417.799466,400.776348 418.121821,401.098703 418.121821,401.496348 L418.121821,407.252029 C418.121821,407.649674 417.799466,407.972029 417.401821,407.972029 L402.529733,407.972029 C402.132088,407.972029 401.809733,407.649674 401.809733,407.252029 L401.809733,401.496348 C401.809733,401.098703 402.132088,400.776348 402.529733,400.776348 Z" id="Rectangle" fill="#790000" opacity="0.5" transform="translate(409.965777, 404.374188) rotate(1.460000) translate(-409.965777, -404.374188) "></path>
                <path d="M450.643507,402.00966 L465.515594,402.00966 C465.913239,402.00966 466.235594,402.332015 466.235594,402.72966 L466.235594,408.485341 C466.235594,408.882986 465.913239,409.205341 465.515594,409.205341 L450.643507,409.205341 C450.245861,409.205341 449.923507,408.882986 449.923507,408.485341 L449.923507,402.72966 C449.923507,402.332015 450.245861,402.00966 450.643507,402.00966 Z" id="Rectangle" fill="#790000" opacity="0.5" transform="translate(458.079550, 405.607501) rotate(1.460000) translate(-458.079550, -405.607501) "></path>
                <path d="M495.74576,403.150414 L510.617848,403.150414 C511.015493,403.150414 511.337848,403.472769 511.337848,403.870414 L511.337848,409.626095 C511.337848,410.02374 511.015493,410.346095 510.617848,410.346095 L495.74576,410.346095 C495.348115,410.346095 495.02576,410.02374 495.02576,409.626095 L495.02576,403.870414 C495.02576,403.472769 495.348115,403.150414 495.74576,403.150414 Z" id="Rectangle" fill="#790000" transform="translate(503.181804, 406.748255) rotate(1.460000) translate(-503.181804, -406.748255) "></path>
                <path d="M543.300396,404.361477 L558.172483,404.361477 C558.570128,404.361477 558.892483,404.683832 558.892483,405.081477 L558.892483,410.837158 C558.892483,411.234803 558.570128,411.557158 558.172483,411.557158 L543.300396,411.557158 C542.90275,411.557158 542.580396,411.234803 542.580396,410.837158 L542.580396,405.081477 C542.580396,404.683832 542.90275,404.361477 543.300396,404.361477 Z" id="Rectangle" fill="#790000" transform="translate(550.736439, 407.959317) rotate(1.460000) translate(-550.736439, -407.959317) "></path>
                <path d="M595.174511,409.011067 L609.269945,409.011067 C609.884085,409.011067 610.381945,409.508927 610.381945,410.123067 L610.381945,415.097999 C610.381945,415.712139 609.884085,416.209999 609.269945,416.209999 L595.174511,416.209999 C594.56037,416.209999 594.062511,415.712139 594.062511,415.097999 L594.062511,410.123067 C594.062511,409.508927 594.56037,409.011067 595.174511,409.011067 Z" id="Rectangle" fill="#790000" transform="translate(602.222228, 412.610533) rotate(1.718358) translate(-602.222228, -412.610533) "></path>
                <path d="M738.736518,484.097716 C742.513124,484.097443 745.764,486.764667 746.501027,490.468208 C747.238054,494.17175 745.255958,497.880114 741.766918,499.325398 C738.277877,500.770682 734.253647,499.550352 732.1553,496.410718 C730.056953,493.271083 730.468914,489.086583 733.139241,486.416306 C734.621186,484.928143 736.636206,484.09345 738.736518,484.097716 Z M738.736518,482.866464 C735.031991,482.86647 731.69254,485.09861 730.276378,488.521352 C728.860216,491.944093 729.646461,495.88283 732.268245,498.499718 C734.89003,501.116606 738.830613,501.895868 742.251288,500.473896 C745.671963,499.051924 747.898533,495.70898 747.892062,492.004909 C747.889942,489.579122 746.924152,487.253531 745.207154,485.53974 C743.490156,483.825949 741.162599,482.864343 738.736518,482.866464 Z" id="Shape" fill="#790000" fill-rule="nonzero"></path>
                <path d="M736.281712,494.707266 L736.761479,494.067655 C737.229532,494.526875 737.856921,494.787539 738.512626,494.795213 C739.312237,494.795213 739.94393,494.387461 739.94393,493.739854 C739.94393,493.092248 739.360214,492.572564 737.745,492.572564 L737.745,491.837011 C739.1843,491.837011 739.728035,491.357303 739.728035,490.733682 C739.728035,490.110061 739.240272,489.814241 738.528619,489.814241 C737.967357,489.831731 737.431046,490.050201 737.017354,490.429866 L736.505603,489.814241 C737.076247,489.31083 737.807706,489.027353 738.568599,489.014727 C739.807996,489.014727 740.727549,489.614362 740.727549,490.661725 C740.727549,491.397278 740.191809,491.884982 739.408191,492.148821 L739.408191,492.188797 C740.241202,492.276663 740.889626,492.952024 740.943444,493.787825 C740.943444,494.923135 739.871965,495.610717 738.592588,495.610717 C737.729982,495.64505 736.892246,495.317533 736.281712,494.707266 Z" id="Path" fill="#790000"></path>
                <path d="M776.550117,484.63339 C780.326723,484.633118 783.577599,487.300341 784.314626,491.003883 C785.051653,494.707424 783.069557,498.415788 779.580517,499.861072 C776.091477,501.306357 772.067246,500.086027 769.968899,496.946392 C767.870552,493.806757 768.282513,489.622257 770.95284,486.951981 C772.43428,485.463063 774.449629,484.628234 776.550117,484.63339 Z M776.550117,483.402139 C771.493649,483.402139 767.394572,487.500719 767.394572,492.556574 C767.394572,497.612428 771.493649,501.711009 776.550117,501.711009 C781.606584,501.711009 785.705661,497.612428 785.705661,492.556574 C785.707786,490.128016 784.743868,487.798315 783.02641,486.081065 C781.308952,484.363815 778.978969,483.400015 776.550117,483.402139 Z" id="Shape" fill="#5A5773" fill-rule="nonzero"></path>
                <path d="M776.670058,491.597157 C776.670058,491.205395 776.670058,490.709696 776.726031,490.317934 L776.670058,490.317934 C776.446167,490.661725 776.190292,491.005516 775.966401,491.349307 L774.367179,493.436039 L778.693074,493.436039 L778.693074,494.275529 L773.247724,494.275529 L773.247724,493.603937 L776.494144,489.334532 L777.685564,489.334532 L777.685564,496.130401 L776.694047,496.130401 L776.670058,491.597157 Z" id="Path" fill="#5A5773"></path>
                <path d="M755.688268,487.327752 C756.014738,487.007787 756.537227,487.007787 756.863696,487.327752 L760.989689,491.469235 C761.146054,491.619929 761.23439,491.827737 761.23439,492.044885 C761.23439,492.262032 761.146054,492.46984 760.989689,492.620535 L756.927665,496.698056 C756.77612,496.864766 756.561264,496.959811 756.335953,496.959811 C756.110642,496.959811 755.895787,496.864766 755.744241,496.698056 C755.580152,496.546695 755.48682,496.333637 755.48682,496.110413 C755.48682,495.88719 755.580152,495.674131 755.744241,495.52277 L759.230545,492.004909 L755.688268,488.503038 C755.521538,488.35151 755.426481,488.136681 755.426481,487.911397 C755.426481,487.686113 755.521538,487.471284 755.688268,487.319757 L755.688268,487.327752 Z" id="Path" fill="#5A5773"></path>
                <path d="M748.651693,492.004909 C748.645225,495.64576 750.834564,498.931407 754.197446,500.327689 C757.560328,501.723971 761.43338,500.955454 764.008167,498.38098 C766.582953,495.806505 767.351564,491.933922 765.955112,488.571448 C764.55866,485.208974 761.272615,483.0199 757.631323,483.026367 C752.673837,483.030775 748.656101,487.048024 748.651693,492.004909 Z M750.035019,492.004909 C750.028352,488.368464 752.592662,485.234131 756.158727,484.519958 C759.724791,483.805784 763.298582,485.710843 764.693127,489.069339 C766.087671,492.427835 764.914245,496.303598 761.890923,498.324865 C758.867602,500.346132 754.837125,499.949482 752.265934,497.377643 C750.832642,495.957767 750.028977,494.022293 750.035019,492.004909 Z" id="Shape" fill="#5A5773" fill-rule="nonzero"></path>
                <rect id="Rectangle" fill="#5A5773" opacity="0.2" x="87.2295525" y="151.148117" width="181.70358" height="19.0684083" rx="3.088"></rect>
                <path d="M519.899008,605.34401 C518.571654,600.546926 517.708074,596.309502 517.708074,596.309502 C517.708074,596.309502 517.764047,591.03271 515.245272,587.155067 L515.197296,585.835869 L514.821479,576.081798 C515.425833,574.285458 516.182898,572.544153 517.084377,570.876962 C518.731576,567.742868 516.540642,556.581652 516.540642,556.581652 C516.540642,556.581652 509.416109,540.999125 510.615525,530.893269 C511.814942,520.787412 495.534864,486.800073 495.534864,486.800073 C495.495207,483.464487 495.838622,480.135373 496.558366,476.878104 C496.684782,476.192871 496.722406,475.494212 496.670311,474.799368 C496.670311,474.711422 496.670311,474.639465 496.670311,474.543524 C496.670311,474.543524 496.670311,474.59949 496.670311,474.623475 C496.198541,468.011495 490.481323,455.794921 490.481323,455.794921 L490.273424,432.105322 C490.273424,432.105322 493.080058,418.017886 486.899066,399.501142 C484.748113,393.041069 483.324805,387.860219 482.397257,383.846659 C482.293307,383.398931 482.189358,382.959198 482.101401,382.543451 C493.295953,380.392758 501.779825,378.641823 501.779825,378.641823 C501.779825,378.641823 494.223502,351.658226 489.641732,347.061021 C485.059961,342.463815 480.965953,327.624836 480.965953,327.624836 C480.965953,327.624836 477.935428,308.476476 481.413735,302.711981 C484.892043,296.947485 485.051965,287.23339 485.051965,287.23339 C485.051965,287.23339 493.255973,280.773317 494.20751,278.014994 C495.159047,275.256671 496.678307,269.052442 496.558366,265.814411 C496.438424,262.576379 495.262996,259.730109 495.550856,258.011154 C495.838716,256.292199 492.776206,249.936063 494.06358,246.817959 C494.389671,245.86135 494.541338,244.853971 494.511362,243.843767 C494.511362,243.843767 494.511362,243.779806 494.511362,243.75582 C494.511362,243.731835 494.511362,243.75582 494.511362,243.715844 C494.419832,241.036532 494.069031,238.372378 493.463872,235.76068 C490.947999,233.790429 488.042786,232.376149 484.940019,231.611203 L484.724125,230.89164 L484.164397,228.964812 C483.876537,228.788919 483.596673,228.637011 483.316809,228.501094 L483.268833,227.805516 L483.084922,225.047193 L484.164397,218.810984 C486.339339,207.897618 471.858385,206.818275 471.858385,206.818275 C470.922286,205.192022 469.414472,203.972237 467.628444,203.396355 C464.685875,202.484909 467.772374,219.674459 469.171693,220.721823 C470.219183,221.521337 473.585545,226.814119 475.208755,229.420535 L475.46463,229.844277 C475.239016,230.070492 475.028026,230.310832 474.832938,230.56384 L475.528599,234.29757 L475.632549,234.865225 C474.726463,236.087029 474.001972,237.433504 473.481595,238.862795 C473.481595,238.862795 476.232257,241.661094 475.832451,244.915115 C475.432646,248.169137 476.919922,252.150717 476.991887,252.366586 C476.831965,252.190693 474.896907,250.255869 473.065798,250.815529 C471.234689,251.375188 466.109183,253.126124 466.109183,253.126124 C466.109183,253.126124 462.263054,253.925638 462.646868,254.797108 C463.030681,255.668578 460.184066,259.49825 460.184066,259.49825 L449.405311,250.04 C449.293366,249.752175 449.173424,249.46435 449.069475,249.160535 C448.583137,247.77023 448.224495,246.338513 447.997996,244.883135 C449.120467,244.564895 450.218737,244.166787 451.284397,243.691859 C452.363056,243.276402 453.325755,242.607257 454.091031,241.741045 C455.090545,240.453827 455.226479,238.758858 455.5943,237.19181 C456.297957,234.137667 457.993132,231.371349 459.120584,228.445128 C461.059014,223.52987 461.569033,218.167002 460.591868,212.974532 C460.363862,211.368656 459.758247,209.839731 458.824728,208.513244 C457.033599,206.242625 453.923113,205.41113 451.62823,203.636209 C449.333346,201.861288 447.758113,199.070984 445.095409,197.767776 C442.696576,196.600486 439.817977,196.85633 437.179261,197.4 C431.991897,198.443583 427.045322,200.447462 422.594358,203.308408 C421.115078,204.25983 419.491868,205.363159 417.732724,205.11531 C416.229455,204.899441 415.086012,203.748141 414.078502,202.644812 C414.078502,202.596841 414.078502,202.54887 414.118482,202.500899 L413.998541,202.364982 C412.992268,204.851829 412.544599,207.529329 412.687179,210.208214 C412.687179,210.623961 412.719163,211.039708 412.783132,211.455456 C412.783132,211.599368 412.783132,211.743281 412.823113,211.887193 C412.831106,212.006987 412.831106,212.127181 412.823113,212.246974 C412.828251,212.432504 412.809439,212.617921 412.76714,212.798639 C412.567545,213.341162 412.253986,213.834615 411.847588,214.245759 C411.54767,214.616575 411.28015,215.012456 411.047977,215.42904 C411.047977,215.285128 411.127938,215.141215 411.175914,215.005298 C410.547964,215.997568 410.217736,217.149065 410.224377,218.323281 C410.199975,219.178068 410.513072,220.008105 411.095953,220.633876 C411.636296,221.123697 412.222741,221.560131 412.847101,221.937084 C412.683684,223.088702 412.624806,224.252742 412.671187,225.41497 C412.968394,232.459199 416.938052,238.831731 423.130097,242.204763 L423.513911,243.084228 C424.977198,246.530134 426.136634,250.567679 425.840778,254.34938 C425.840778,254.62921 425.784805,254.901045 425.744825,255.148894 C425.616887,255.292807 425.496946,255.444714 425.385,255.596622 C425.385,255.596622 408.217354,256.396136 404.035389,252.91825 C399.853424,249.440365 394.176187,262.248578 394.176187,262.248578 C394.176187,262.248578 388.06716,263.679708 386.795778,262.536403 C385.524397,261.393098 378.343891,262.688311 378.343891,262.688311 C375.292523,260.18188 371.40184,258.929924 367.461187,259.18644 C364.990383,257.451518 362.284344,256.078471 359.425097,255.108919 L359.233191,255.044957 C357.977056,254.641348 356.646517,254.523881 355.339086,254.701166 C355.339086,254.701166 346.631323,248.04921 344.024591,244.395431 C341.41786,240.741652 329.151829,227.301823 329.095856,227.245857 L329.039883,226.56627 L328.831984,224.551495 C328.485935,224.616612 328.136045,224.659341 327.784494,224.679417 C327.715195,224.482203 327.627237,224.250344 327.520623,223.98384 C326.769443,222.048287 325.862927,220.176652 324.809942,218.387242 C324.809942,218.387242 324.713988,215.828797 325.433638,215.189186 C326.153288,214.549575 324.737977,205.195261 324.737977,205.195261 C324.737977,205.195261 316.446012,187.701896 310.137082,201.245662 C310.137082,201.245662 297.583191,210.336136 308.785739,219.922309 C308.785739,219.922309 313.183599,221.841142 313.855272,223.472151 C314.295058,224.535504 315.878288,227.469721 316.94177,229.436525 L317.413541,230.31599 L317.293599,230.419927 L317.51749,232.082916 L317.605447,232.730522 C315.614416,233.969769 314.279066,235.16904 314.646887,236.016525 C315.303711,237.468391 315.77648,238.996646 316.054202,240.565759 C316.054202,240.565759 331.726576,258.722722 333.973482,266.645905 C333.973482,266.645905 374.993521,288.936355 388.25107,290.135626 L386.427957,302.128335 C386.427957,302.128335 385.996167,309.323961 386.268035,311.850425 C386.539903,314.376889 385.228541,326.041798 385.228541,326.041798 C385.228541,326.041798 383.629319,343.159392 381.75823,345.6139 C379.88714,348.068408 380.654767,358.270207 380.654767,358.270207 C380.381037,363.179205 379.685476,368.055561 378.575778,372.845346 C376.888599,379.385371 378.575778,387.332539 378.575778,387.332539 C378.575778,387.332539 372.482743,402.915067 388.083152,391.913755 C388.083152,391.913755 395.927335,391.114241 404.962938,390.466634 C404.962938,390.762454 404.962938,391.058275 404.962938,391.370085 C404.962938,392.537375 405.010914,393.768627 405.050895,395.127801 C405.26679,403.922454 405.682588,416.003111 406.426226,425.13356 C407.75358,441.275747 413.910584,473.104399 413.910584,473.104399 L414.526284,489.182625 C414.270217,490.706147 414.176405,492.25252 414.24642,493.79582 C414.350527,499.466796 416.067318,504.990918 419.196012,509.722139 L420.84321,520.403645 C420.84321,520.403645 424.041654,527.351422 424.217568,531.596841 C424.221289,531.942314 424.194531,532.287442 424.137607,532.628214 C424.049434,533.172496 424.022612,533.724951 424.057646,534.275213 C424.057646,539.152248 427.463988,550.689235 427.463988,550.689235 C427.463988,550.689235 428.095681,562.4261 429.862821,563.041725 C431.390078,563.569405 428.111673,569.885565 427.136148,571.708457 C427.136148,571.596525 427.080175,571.484593 427.056187,571.372661 L426.856284,571.732442 C426.526809,572.693593 426.377712,573.707324 426.416498,574.722625 C426.278766,576.367927 427.100368,577.945585 428.527471,578.77616 C431.949805,580.694994 433.812899,582.326002 430.998268,583.117521 C429.961667,583.330923 428.936796,583.597784 427.927763,583.917035 L427.76784,583.533269 C427.016854,583.902266 426.602191,584.724961 426.752335,585.548044 C426.704358,586.403524 427.040195,587.650765 427.951751,589.489648 C431.006265,595.677886 433.053268,597.988481 433.053268,597.988481 L434.396615,597.780608 C434.216257,598.304384 433.971856,598.803867 433.668969,599.267704 C433.18623,600.025845 432.527982,600.656589 431.749903,601.106586 C431.024287,601.579177 430.206695,601.892549 429.35107,602.026027 C427.42132,602.158777 425.640425,603.110219 424.457451,604.640437 C422.794261,606.975018 421.810739,610.109113 425.385,612.691543 L438.130798,616.5452 C438.130798,616.5452 459.872218,618.527995 458.536868,613.714921 C457.201518,608.901847 456.345934,604.680413 456.345934,604.680413 C456.316678,601.71149 455.602481,598.78938 454.258949,596.141604 C454.024097,595.708922 453.756795,595.294654 453.459339,594.902357 L454.218969,594.78243 C454.218969,594.78243 455.394397,583.996987 457.417412,581.878275 C457.881187,581.382576 457.97714,581.022795 457.857198,580.742965 C458.049105,580.151324 457.489377,579.831519 456.769728,579.663621 C456.721751,579.807533 456.673774,579.943451 456.633794,580.095358 C455.955477,579.977586 455.266907,579.929365 454.578794,579.951446 C454.578794,579.951446 453.659241,574.354848 455.866167,572.228141 C456.223683,571.743933 456.360159,571.13132 456.241984,570.541166 C456.232239,569.771155 456.124765,569.005496 455.92214,568.262552 C455.92214,568.262552 455.874163,568.350498 455.842179,568.398469 C454.490837,563.345541 450.284883,555.390377 450.284883,555.390377 C450.284883,555.390377 449.917062,550.289478 451.244416,548.194751 C452.57177,546.100024 449.997023,520.451616 449.997023,520.451616 C449.997023,520.451616 450.045,508.003183 448.237879,502.278663 C446.430759,496.554143 449.653191,489.606367 449.653191,489.606367 C449.653191,489.606367 449.653191,489.47045 449.597218,489.238591 C449.614122,489.211037 449.627551,489.181496 449.637198,489.150644 C449.637198,489.150644 449.533249,488.35113 449.357335,487.19983 C449.357335,487.19983 449.357335,487.279781 449.357335,487.319757 C448.877568,484.04175 447.974008,478.109356 447.3743,475.375018 C446.518716,471.48938 446.678638,452.724787 446.678638,452.724787 L449.541245,444.601725 L455.698249,458.193463 L462.382996,476.350425 C462.382996,476.350425 465.501479,480.116136 465.717374,484.049745 C465.717374,484.241628 465.717374,484.433512 465.717374,484.625395 C465.717374,485.049137 465.717374,485.424909 465.717374,485.856646 C465.70327,488.18404 466.431518,490.455337 467.796362,492.340705 C467.796362,492.340705 469.715428,500.959465 472.258191,503.078177 C474.800953,505.196889 474.976868,509.474289 474.976868,509.474289 C474.976868,509.474289 478.447179,521.954702 479.942451,524.11339 C481.19784,525.936282 481.461712,531.061166 481.541673,532.628214 C481.541673,532.916039 481.541673,533.083937 481.541673,533.083937 C481.541673,533.083937 482.133385,537.56921 482.261323,541.358906 C482.261323,541.822625 482.261323,542.278348 482.261323,542.70209 C482.261323,542.70209 482.261323,542.638129 482.261323,542.606148 C482.298404,543.638332 482.215218,544.671324 482.013444,545.684277 C482.013444,545.732248 482.013444,545.796209 481.965467,545.86017 C481.965467,545.644301 481.965467,545.428433 481.965467,545.220559 C481.443077,547.813772 481.241662,550.461385 481.365759,553.103767 C481.461712,557.637011 482.357276,562.969769 485.219883,566.015917 C490.177471,571.284714 493.144027,570.4852 493.144027,570.4852 C493.144027,570.4852 491.121012,577.385006 488.346362,578.856112 C488.24254,578.910627 488.145854,578.977761 488.058502,579.05599 C488.058502,578.928068 487.994533,578.792151 487.970545,578.664228 C487.377811,579.379317 487.113674,580.310938 487.242899,581.230668 C487.154942,584.236841 489.23393,589.02593 491.113016,591.192612 C491.794602,591.814086 492.618299,592.258829 493.511848,592.487825 C493.374214,592.592889 493.229988,592.689027 493.080058,592.77565 C492.773647,592.960773 492.455834,593.126336 492.128521,593.271349 C491.680612,593.491413 491.19991,593.637227 490.705214,593.703086 C488.776864,593.833003 486.997347,594.785264 485.819591,596.317497 C484.156401,598.644083 483.164883,601.778177 486.739144,604.360608 L499.492938,608.214265 C499.492938,608.214265 521.234358,610.157084 519.899008,605.34401 Z" id="Path" fill="url(#linearGradient-2)"></path>
                <path d="M437.57107,616.569186 L425.233074,612.731519 C421.770759,610.141094 422.7143,607.006999 424.329514,604.680413 C425.448878,603.1625 427.1744,602.207885 429.055214,602.066002 C429.877512,601.933212 430.660792,601.622121 431.350097,601.154557 C432.11085,600.701435 432.750195,600.070399 433.213191,599.315674 C434.045799,597.871277 434.463606,596.225151 434.420603,594.558566 C434.420603,594.558566 447.638171,590.129259 451.444319,593.902965 C452.124751,594.585259 452.70129,595.363762 453.155486,596.21356 C454.462127,598.866978 455.158795,601.778973 455.194494,604.736379 C455.194494,604.736379 456.034086,608.957813 457.329455,613.770887 C458.624825,618.583961 437.57107,616.569186 437.57107,616.569186 Z" id="Path" fill="#2D293D"></path>
                <path d="M496.958171,608.278226 L484.612179,604.408578 C481.149864,601.818153 482.101401,598.684058 483.708619,596.357473 C484.825941,594.83844 486.553286,593.885739 488.434319,593.751057 C488.913653,593.684922 489.378525,593.538991 489.80965,593.31932 C490.129771,593.178457 490.439702,593.015496 490.737198,592.831616 C494.071576,590.824836 493.799708,586.235626 493.799708,586.235626 C493.799708,586.235626 507.017276,581.806318 510.83142,585.580024 C511.340331,586.090846 511.790879,586.656645 512.174767,587.266999 C514.621576,591.144642 514.573599,596.437424 514.573599,596.437424 C514.573599,596.437424 515.421187,600.666853 516.70856,605.471932 C517.995934,610.277011 496.958171,608.278226 496.958171,608.278226 Z" id="Path" fill="#2D293D"></path>
                <path d="M451.444319,593.870984 C452.124751,594.553279 452.70129,595.331782 453.155486,596.18158 L433.213191,599.275699 C434.045799,597.831301 434.463606,596.185175 434.420603,594.518591 C434.420603,594.518591 447.638171,590.097278 451.444319,593.870984 Z" id="Path" fill="#000000" opacity="0.1"></path>
                <path d="M512.150778,587.266999 L512.294708,591.016719 C509.384125,596.269526 494.263482,595.725857 489.785661,593.31932 C490.105782,593.178457 490.415714,593.015496 490.71321,592.831616 C494.047588,590.824836 493.77572,586.235626 493.77572,586.235626 C493.77572,586.235626 506.993288,581.806318 510.807432,585.580024 C511.316342,586.090846 511.766891,586.656645 512.150778,587.266999 Z" id="Path" fill="#000000" opacity="0.1"></path>
                <path d="M513.909922,571.01288 C513.037143,572.680572 512.306898,574.41904 511.726984,576.209721 L512.246732,589.657546 C509.048288,595.406051 491.272938,594.214775 488.770156,591.256574 C486.267374,588.298372 483.412763,580.383183 486.083463,578.912078 C488.754163,577.440972 490.705214,570.557157 490.705214,570.557157 C490.705214,570.557157 487.834611,571.356671 483.028949,566.079878 C478.223288,560.803086 479.118852,548.666464 479.830506,545.740243 C480.54216,542.814022 479.334747,533.139903 479.334747,533.139903 C479.334747,533.139903 479.24679,526.328044 477.799494,524.169356 C476.352198,522.010668 473.001829,509.52226 473.001829,509.52226 C473.001829,509.52226 472.841907,505.260851 470.371109,503.126148 C467.900311,500.991446 466.037218,492.38068 466.037218,492.38068 C464.559856,490.264361 463.859309,487.70259 464.054183,485.129089 C464.398016,480.851689 460.815759,476.382406 460.815759,476.382406 L454.322918,458.225443 L448.341829,444.633706 L445.583171,452.756768 C445.583171,452.756768 445.455233,471.513366 446.286829,475.399004 C447.118424,479.284642 448.541732,489.638348 448.541732,489.638348 C448.541732,489.638348 445.391265,496.578129 447.150409,502.302649 C448.909553,508.027169 448.869572,520.483597 448.869572,520.483597 C448.869572,520.483597 451.396342,546.132005 450.108969,548.226731 C448.821595,550.321458 449.197412,555.422357 449.197412,555.422357 C449.197412,555.422357 456.753735,570.133414 454.618774,572.260122 C452.483813,574.386829 453.379377,579.975431 453.379377,579.975431 C453.379377,579.975431 458.177043,579.791543 456.178016,581.91825 C454.178988,584.044957 453.099514,594.822406 453.099514,594.822406 L432.605486,598.020462 C432.605486,598.020462 430.622451,595.709866 427.655895,589.513633 C424.689339,583.3174 427.951751,583.87706 430.662432,583.117521 C433.373113,582.357983 431.581984,580.718979 428.263599,578.77616 C424.945214,576.833341 426.664377,572.188165 426.664377,572.188165 C426.664377,572.188165 431.278132,563.657351 429.550973,563.041725 C427.823813,562.4261 427.200117,550.689235 427.200117,550.689235 C427.200117,550.689235 423.258035,536.857643 424.001673,533.099927 C424.745311,529.342211 420.80323,520.435626 420.80323,520.435626 L419.204008,509.754119 C412.599222,499.384423 414.598249,489.606367 414.598249,489.606367 L413.95856,473.088408 C413.95856,473.088408 407.961479,441.267752 406.658113,425.11757 C405.858502,414.771859 405.402724,400.636452 405.210817,391.809818 C405.098872,386.852831 405.058891,383.574824 405.058891,383.574824 L478.319241,373.0852 C478.319241,373.0852 478.375214,376.483135 480.070389,383.958591 C480.973949,387.95616 482.357276,393.153001 484.452257,399.621069 C490.449339,418.137813 487.75465,432.225249 487.75465,432.225249 L487.986537,455.914848 C487.986537,455.914848 495.063093,471.497375 493.911654,476.998032 C493.231789,480.257794 492.91269,483.582455 492.960117,486.912005 C492.960117,486.912005 508.760428,520.915334 507.616984,531.021191 C506.473541,541.127047 513.374183,556.709575 513.374183,556.709575 C513.374183,556.709575 515.493152,567.878785 513.909922,571.01288 Z" id="Path" fill="#575988"></path>
                <path d="M468.444047,483.937813 L490.721206,480.092151 C490.721206,480.092151 478.567121,493.523985 468.444047,483.937813 Z" id="Path" fill="#000000" opacity="0.05"></path>
                <path d="M486.643191,458.345371 C486.643191,458.345371 487.714669,466.228578 482.972977,469.394654 C482.972977,469.394654 491.608774,467.699684 486.643191,458.345371 Z" id="Path" fill="#000000" opacity="0.1"></path>
                <path d="M484.300331,433.200656 C484.300331,433.200656 466.173152,449.326853 459.320486,448.31147 C452.467821,447.296087 484.300331,433.200656 484.300331,433.200656 Z" id="Path" fill="#000000" opacity="0.1"></path>
                <path d="M440.985409,492.236768 C440.985409,492.236768 426.880272,496.002479 426.672374,501.734994 C426.464475,507.467509 440.985409,492.236768 440.985409,492.236768 Z" id="Path" fill="#000000" opacity="0.1"></path>
                <path d="M446.830564,563.105687 C446.830564,563.105687 426.888268,567.62294 432.685447,569.957521 C438.482626,572.292102 447.934027,573.955091 447.934027,573.955091 C447.934027,573.955091 454.410875,574.067023 446.830564,563.105687 Z" id="Path" fill="#000000" opacity="0.05"></path>
                <g id="Group" opacity="0.05" transform="translate(404.603113, 382.967193)" fill="#000000">
                    <path d="M24.1802335,191.195772 C23.1377893,190.590888 22.4238853,189.548068 22.237179,188.357497 L22.0452724,188.725273 C22.0452724,188.725273 20.3421012,193.394435 23.6444942,195.313269 C24.0283074,195.529137 24.3801362,195.745006 24.7239689,195.960875 C25.3076848,195.824957 25.9553696,195.721021 26.5630739,195.537132 C29.2977432,194.753609 27.4986187,193.114605 24.1802335,191.195772 Z" id="Path"></path>
                    <path d="M49.9756809,188.8452 C50.5114202,188.309526 50.4394553,187.006318 50.0396498,185.335334 C49.1840661,186.694508 49.0401362,188.749259 49.0881128,190.308311 C49.2722837,189.761057 49.5753996,189.261387 49.9756809,188.8452 Z" id="Path"></path>
                    <path d="M43.6587549,104.240632 C42.9954551,106.281426 42.6187076,108.40441 42.5392996,110.548797 C42.8677663,109.053981 43.3335161,107.592667 43.9306226,106.183451 C43.9306226,106.183451 43.8266732,105.455893 43.6587549,104.240632 Z" id="Path"></path>
                    <path d="M89.3085409,93.5591252 C89.4217583,92.942365 89.4620156,92.3144285 89.4284825,91.6882625 C89.2205837,92.97548 89.0926459,94.1587606 89.0046887,95.1981288 C89.0926459,94.6464642 89.1965953,94.1187849 89.3085409,93.5591252 Z" id="Path"></path>
                    <path d="M45.505856,164.803815 C45.7617315,164.380073 45.8656809,162.964933 45.8656809,161.006124 C45.297287,162.539976 45.0259258,164.167945 45.06607,165.803208 C45.1721521,165.453685 45.3198031,165.118155 45.505856,164.803815 Z" id="Path"></path>
                    <path d="M50.9592023,196.744399 C49.7038132,200.630036 49.0161479,207.289988 49.0161479,207.289988 L28.5221206,210.488044 C28.5221206,210.488044 26.5390856,208.177448 23.5885214,201.965225 C23.3326459,201.421555 23.116751,200.933852 22.9488327,200.486124 C21.7414202,201.10175 21.3016342,202.396962 23.0687743,206.082722 C26.0353307,212.278955 28.0103696,214.58955 28.0103696,214.58955 L48.5043969,211.391495 C48.5043969,211.391495 49.6238521,200.606051 51.5908949,198.479344 C52.5424319,197.455966 51.8787549,196.984253 50.9592023,196.744399 Z" id="Path"></path>
                    <path d="M22.5810117,167.218348 C22.5810117,167.218348 23.2047082,178.963208 24.9318677,179.578834 C25.7314786,177.596039 26.2192412,175.733171 25.4436187,175.461337 C23.7164591,174.845711 23.0927626,163.100851 23.0927626,163.100851 C23.0927626,163.100851 19.1506809,149.277254 19.8943191,145.511543 C20.6379572,141.745832 16.6958755,132.847242 16.6958755,132.847242 L15.0966537,122.17373 C8.56383268,111.852005 10.570856,102.057959 10.570856,102.057959 L9.93116732,85.5479951 C9.93116732,85.5479951 3.9340856,53.727339 2.63071984,37.5771567 C1.83110895,27.2394411 1.37533074,13.0960389 1.18342412,4.26940462 C1.18342412,2.67037667 1.11945525,1.26323208 1.09546693,0.0719562576 L0.511750973,0.151907655 C0.511750973,0.151907655 0.511750973,3.42991495 0.655680934,8.38690158 C0.855583658,17.1815553 1.27138132,31.3489429 2.11097276,41.6866586 C3.41433852,57.8368408 9.41142023,89.657497 9.41142023,89.657497 L9.99513619,106.159465 C9.99513619,106.159465 7.98811284,115.953512 14.5209339,126.275237 L16.1201556,136.956744 C16.1201556,136.956744 20.0462451,145.839344 19.3185992,149.61305 C18.5909533,153.386756 22.5810117,167.218348 22.5810117,167.218348 Z" id="Path"></path>
                    <path d="M84.6867899,203.70017 C82.9164091,201.348468 81.6951146,198.630256 81.1125292,195.745006 C79.0815175,197.719806 81.7842023,204.987388 84.1590467,207.817667 C86.6618288,210.791859 104.437179,211.983135 107.627626,206.218639 L107.499689,202.972612 C103.07784,207.729721 87.045642,206.514459 84.6867899,203.70017 Z" id="Path"></path>
                    <path d="M109.81856,183.472467 C108.945781,185.140159 108.215536,186.878627 107.635623,188.669307 L107.72358,191.067849 C108.075409,190.180389 108.58716,188.997108 109.322802,187.589964 C109.810198,186.230729 110.008994,184.784862 109.906518,183.344544 C109.858541,183.392515 109.842549,183.432491 109.81856,183.472467 Z" id="Path"></path>
                    <path d="M85.0945914,187.110255 C85.6898156,185.774899 86.1973127,184.402152 86.6138521,183.000753 C86.6138521,183.000753 83.743249,183.800267 78.9375875,178.523475 C75.4432879,174.685808 74.9395331,167.210352 75.2513813,162.301337 C74.5077432,165.227558 73.612179,177.36418 78.4498249,182.632977 C81.5603113,186.078882 83.8711868,186.934362 85.0945914,187.110255 Z" id="Path"></path>
                    <path d="M74.7636187,149.700996 C75.1883792,153.043308 75.4312855,156.406219 75.4912646,159.774872 C75.5540263,159.23642 75.6501646,158.702383 75.7791245,158.175844 C76.5227626,155.249623 75.2833658,145.583499 75.2833658,145.583499 C75.2833658,145.583499 75.1954086,138.763645 73.7481128,136.604957 C72.3008171,134.44627 68.9504475,121.957861 68.9504475,121.957861 C68.9504475,121.957861 68.7905253,117.704447 66.3197276,115.56175 C63.84893,113.419052 61.9698444,104.840267 61.9698444,104.840267 C60.488231,102.725942 59.7872609,100.162624 59.9868093,97.5886756 C60.330642,93.3112758 56.7883658,88.8499878 56.7883658,88.8499878 L50.2395525,70.661045 L44.258463,57.0693074 L41.4998054,65.2243499 C41.4998054,65.2243499 41.4998054,66.2317375 41.4998054,67.8147752 L43.738716,61.2187849 L49.7198054,74.8105225 L56.220642,92.97548 C56.220642,92.97548 59.8028988,97.4447631 59.4190856,101.714168 C59.2223348,104.290346 59.922968,106.855256 61.4021206,108.973755 C61.4021206,108.973755 63.2732101,117.592515 65.7360117,119.719222 C68.1988132,121.84593 68.3747276,126.115334 68.3747276,126.115334 C68.3747276,126.115334 71.7490856,138.603742 73.172393,140.76243 C74.5957004,142.921118 74.7636187,149.700996 74.7636187,149.700996 Z" id="Path"></path>
                </g>
                <path d="M481.605642,218.914921 L480.566148,225.183111 L480.750058,227.941434 L480.877996,229.980194 L473.809436,230.987582 L472.953852,229.548457 C471.35463,226.942041 468.116206,221.641264 467.1007,220.84175 C465.741362,219.794386 462.734825,202.604836 465.589436,203.516282 C467.330306,204.115887 468.788292,205.337372 469.683444,206.946197 C469.683444,206.946197 483.700623,208.00955 481.605642,218.914921 Z" id="Path" fill="#FFCDD3"></path>
                <path d="M480.877996,229.980194 L473.809436,230.987582 L472.953852,229.548457 C474.839357,227.225784 478.102296,226.556544 480.750058,227.949429 L480.877996,229.980194 Z" id="Path" fill="#000000" opacity="0.1"></path>
                <path d="M482.805058,233.282187 L473.521576,235.808651 L473.2657,234.425492 L472.594027,230.691762 C472.594027,230.691762 476.112315,225.606853 481.613638,229.092734 L482.157374,230.987582 L482.805058,233.282187 Z" id="Path" fill="#DCE6F2"></path>
                <path d="M330.52716,225.406974 L320.739922,231.163475 C320.739922,231.163475 320.324125,230.363961 319.756401,229.308603 C318.732899,227.349793 317.197646,224.399587 316.765856,223.344228 C316.110175,221.7452 311.856245,219.778396 311.856245,219.778396 C301.005525,210.184228 313.143619,201.109745 313.143619,201.109745 C319.228658,187.573973 327.280739,205.107315 327.280739,205.107315 C327.280739,205.107315 328.65607,214.437643 327.960409,215.101239 C327.264747,215.764836 327.3607,218.299295 327.3607,218.299295 C328.390383,220.089139 329.270288,221.961049 329.99142,223.895893 C330.343249,224.831324 330.52716,225.406974 330.52716,225.406974 Z" id="Path" fill="#FFCDD3"></path>
                <path d="M330.52716,225.406974 L320.739922,231.163475 C320.739922,231.163475 320.324125,230.363961 319.756401,229.308603 C321.123735,228.077351 325.969377,223.823937 327.624572,223.943864 C328.422394,224.019506 329.225583,224.019506 330.023405,223.943864 C330.343249,224.831324 330.52716,225.406974 330.52716,225.406974 Z" id="Path" fill="#000000" opacity="0.1"></path>
                <path d="M331.662607,228.397157 L320.643969,234.361531 L320.324125,231.962989 L320.100233,230.3 C320.100233,230.3 326.401167,224.471543 328.32823,224.607461 C329.307124,224.707978 330.295376,224.667591 331.262802,224.487533 L331.4707,226.510304 L331.662607,228.397157 Z" id="Path" fill="#DCE6F2"></path>
                <path d="M455.954125,261.249186 C455.954125,261.249186 407.17786,268.66068 416.213463,265.334702 C422.506401,263.016112 424.889241,258.866634 425.24107,254.34938 C425.52893,250.567679 424.441459,246.530134 422.986167,243.084228 C421.709106,240.037425 420.125741,237.128244 418.260467,234.401507 C418.260467,234.401507 454.922626,212.358906 448.181907,231.363354 C447.131855,234.239133 446.530445,237.259297 446.398774,240.31791 C446.283513,243.35464 446.72525,246.386811 447.70214,249.264471 C449.292929,253.94478 452.149185,258.093045 455.954125,261.249186 Z" id="Path" fill="#FFCDD3"></path>
                <path d="M448.181907,231.363354 C447.131855,234.239133 446.530445,237.259297 446.398774,240.31791 C442.984436,243.420024 439.106323,243.372053 434.140739,243.563937 C430.318599,243.707849 426.14463,244.795188 423.010156,243.076233 C421.733094,240.029429 420.14973,237.120249 418.284455,234.393512 C418.284455,234.393512 454.922626,212.358906 448.181907,231.363354 Z" id="Path" fill="#000000" opacity="0.1"></path>
                <ellipse id="Oval" fill="#FFCDD3" cx="432.717432" cy="224.631446" rx="20.2781323" ry="20.2756744"></ellipse>
                <path d="M455.954125,261.249186 C455.954125,261.249186 407.17786,268.66068 416.213463,265.334702 C422.506401,263.016112 424.889241,258.866634 425.24107,254.34938 C427.58393,251.615043 432.437568,249.552296 435.51607,248.385006 C438.353576,247.311322 441.453664,247.140978 444.391751,247.897303 C445.548457,248.192899 446.65566,248.656198 447.678152,249.272467 C449.276912,253.952683 452.141578,258.098335 455.954125,261.249186 Z" id="Path" fill="#000000" opacity="0.1"></path>
                <path d="M482.805058,233.282187 L473.521576,235.808651 L473.2657,234.425492 C475.210811,231.523199 478.766772,230.151506 482.157374,230.995577 L482.805058,233.282187 Z" id="Path" fill="#000000" opacity="0.1"></path>
                <path d="M331.662607,228.397157 L320.643969,234.361531 L320.324125,231.962989 C324.250214,229.436525 330.894981,226.742163 331.4707,226.510304 L331.662607,228.397157 Z" id="Path" fill="#000000" opacity="0.1"></path>
                <path d="M480.086381,383.950595 C461.231556,387.67633 434.372626,392.617327 430.038735,391.474022 C426.440486,390.530595 415.094008,391.08226 405.250798,391.801823 C405.138852,386.844836 405.098872,383.566829 405.098872,383.566829 L478.359222,373.077205 C478.359222,373.077205 478.391206,376.47514 480.086381,383.950595 Z" id="Path" fill="#000000" opacity="0.1"></path>
                <path d="M498.845253,378.769745 C498.845253,378.769745 436.771459,391.897764 429.982763,390.114848 C423.194066,388.331932 388.858774,391.865784 388.858774,391.865784 C373.762121,402.843111 379.647257,387.276574 379.647257,387.276574 C379.647257,387.276574 377.97607,379.329405 379.59928,372.78938 C380.667469,367.997314 381.336106,363.12488 381.598307,358.222236 C381.598307,358.222236 380.862665,348.020437 382.645798,345.56593 C384.42893,343.111422 385.980175,326.001823 385.980175,326.001823 C385.980175,326.001823 387.235564,314.352904 386.971693,311.81045 C386.707821,309.267995 387.107626,302.08836 387.107626,302.08836 L388.858774,290.09565 C376.065,288.880389 336.292354,266.541968 336.292354,266.541968 C334.109416,258.61079 318.916809,240.445832 318.916809,240.445832 C318.649323,238.879096 318.190096,237.35121 317.549475,235.896598 C316.422023,233.210231 331.534669,227.1739 331.534669,227.1739 C331.534669,227.1739 343.480856,240.693682 346.007626,244.347461 C348.534397,248.001239 356.978288,254.661191 356.978288,254.661191 C358.244113,254.491334 359.531997,254.611631 360.744455,255.012977 C360.812722,255.025216 360.879661,255.043956 360.944358,255.068943 C363.726018,256.048934 366.351783,257.424937 368.740564,259.154459 C374.849591,258.578809 379.27144,262.672321 379.27144,262.672321 C379.27144,262.672321 386.212062,261.385103 387.451459,262.528408 C388.690856,263.671713 394.599981,262.256574 394.599981,262.256574 C394.599981,262.256574 400.077315,249.424374 404.131342,252.934241 C408.18537,256.444107 424.801284,255.636598 424.801284,255.636598 C426.904261,252.60644 432.205681,250.287849 435.532062,249.072588 C438.369569,247.998904 441.469657,247.82856 444.407743,248.584885 C445.681888,248.909491 446.890859,249.450352 447.982004,250.183913 L458.440914,259.666148 C458.440914,259.666148 461.191576,255.812491 460.839747,254.973001 C460.487918,254.133512 464.190117,253.310012 464.190117,253.310012 C464.190117,253.310012 469.067743,251.583062 470.92284,251.007412 C472.777938,250.431762 474.569066,252.382576 474.720992,252.558469 C474.657023,252.3426 473.217724,248.273074 473.593541,245.106999 C473.969358,241.940923 471.31465,239.054678 471.31465,239.054678 C476.712023,224.183718 490.633249,235.928578 490.633249,235.928578 C490.633249,235.928578 492.472354,243.867752 491.224961,246.985857 C489.977568,250.103961 492.952121,256.468092 492.680253,258.179052 C492.408385,259.890012 493.535837,262.752272 493.663774,265.982309 C493.791712,269.212345 492.304436,275.336622 491.360895,278.126926 C490.417354,280.91723 482.565175,287.329332 482.565175,287.329332 C482.565175,287.329332 482.429241,297.051422 479.070875,302.799927 C475.71251,308.548433 478.663074,327.712783 478.663074,327.712783 C478.663074,327.712783 482.661128,342.559757 487.082977,347.164957 C491.504825,351.770158 498.845253,378.769745 498.845253,378.769745 Z" id="Path" fill="#656691"></path>
                <path d="M403.443677,270.259708 C403.443677,270.259708 401.356693,264.711081 399.629533,264.271349 C397.912442,263.709809 396.234845,263.034044 394.607977,262.248578 L395.623482,260.105881 C395.623482,260.105881 402.092335,261.616962 403.179805,263.447849 C404.267276,265.278736 403.443677,270.259708 403.443677,270.259708 Z" id="Path" fill="#000000" opacity="0.1"></path>
                <path d="M368.74856,259.146464 C368.468696,260.865419 353.380039,262.976136 353.380039,262.976136 L360.744455,254.980996 L360.936362,255.044957 C363.724515,256.028516 366.355801,257.409976 368.74856,259.146464 Z" id="Path" fill="#000000" opacity="0.1"></path>
                <ellipse id="Oval" fill="#575988" cx="324.002335" cy="237.47164" rx="1.35933852" ry="1.35917375"></ellipse>
                <ellipse id="Oval" fill="#575988" cx="325.849436" cy="240.126027" rx="1.35933852" ry="1.35917375"></ellipse>
                <ellipse id="Oval" fill="#575988" cx="327.64856" cy="242.572539" rx="1.35933852" ry="1.35917375"></ellipse>
                <ellipse id="Oval" fill="#575988" cx="329.543638" cy="245.226926" rx="1.35933852" ry="1.35917375"></ellipse>
                <ellipse id="Oval" fill="#575988" cx="490.025545" cy="238.90277" rx="1.11145914" ry="1.11132442"></ellipse>
                <ellipse id="Oval" fill="#575988" cx="490.289416" cy="241.405249" rx="1.11145914" ry="1.11132442"></ellipse>
                <ellipse id="Oval" fill="#575988" cx="490.537296" cy="243.907728" rx="1.11145914" ry="1.11132442"></ellipse>
                <path d="M405.30677,316.391665 C405.138852,316.191786 445.383268,363.179222 474.073307,334.028943 C474.105292,334.028943 427.272082,342.223961 405.30677,316.391665 Z" id="Path" fill="#000000" opacity="0.1"></path>
                <path d="M384.213035,342.431835 C384.213035,342.431835 407.201848,342.17599 409.856556,348.684034 L410.120428,355.559854 C408.822718,356.352978 407.2065,356.41653 405.850506,355.727752 C403.451673,354.560462 389.330545,348.044423 384.564864,351.626245 L384.213035,342.431835 Z" id="Path" fill="#000000" opacity="0.1"></path>
                <path d="M384.652821,342.415844 C384.652821,342.415844 406.642121,342.167995 409.176887,348.380219 L409.432763,354.928238 C408.189615,355.682992 406.645093,355.743436 405.346751,355.088141 C403.083852,353.984812 389.54644,347.764593 384.988658,351.186513 L384.652821,342.415844 Z" id="Path" fill="#656691"></path>
                <path d="M394.839864,292.126416 C397.3984,297.463727 400.587612,302.475121 404.339241,307.053341 C408.424643,312.123791 413.310564,316.493311 418.804202,319.989478 C418.804202,319.989478 395.351615,295.22853 394.839864,292.126416 Z" id="Path" fill="#000000" opacity="0.1"></path>
                <path d="M386.300019,265.694484 C386.300019,265.694484 390.769844,282.08452 400.860934,287.321337 L386.300019,265.694484 Z" id="Path" fill="#000000" opacity="0.1"></path>
                <path d="M380.494844,267.589332 C380.382899,267.285516 377.592257,280.797303 394.008268,287.577204 C394.008268,287.585176 387.067646,285.52243 380.494844,267.589332 Z" id="Path" fill="#000000" opacity="0.1"></path>
                <path d="M480.350253,252.63842 C480.094377,252.63842 488.51428,257.563426 490.833152,259.906002 C490.833152,259.906002 485.187899,252.150717 480.350253,252.63842 Z" id="Path" fill="#000000" opacity="0.1"></path>
                <path d="M427.951751,243.212151 C428.279591,244.243524 428.679397,245.370838 429.63893,245.882527 C430.243727,246.152768 430.904709,246.273431 431.565992,246.234313 C437.754981,246.386221 444.191848,246.410207 449.813113,243.835772 C450.866695,243.416392 451.800516,242.743573 452.53179,241.876962 C453.499319,240.59774 453.627257,238.90277 453.979086,237.335723 C454.658755,234.28158 456.265973,231.515261 457.385428,228.58904 C459.26927,223.640396 459.756118,218.26913 458.792743,213.062479 C458.574188,211.462013 457.985562,209.934508 457.07358,208.601191 C455.34642,206.322576 452.323891,205.491081 450.084981,203.71616 C447.84607,201.941239 446.342802,199.14294 443.760058,197.839733 C441.433191,196.664447 438.650545,196.920292 436.099786,197.455966 C431.075734,198.513569 426.301129,200.524685 422.03463,203.380365 C420.603327,204.331786 419.036089,205.435115 417.332918,205.179271 C415.837646,204.963402 414.718191,203.756136 413.718677,202.628821 C412.620788,205.452765 412.217661,208.499156 412.543249,211.511422 C412.619188,211.953246 412.619188,212.404786 412.543249,212.84661 C412.352069,213.38347 412.049609,213.873887 411.655681,214.285735 C410.200389,216.116622 409.352802,218.946902 410.928035,220.681847 C411.6157,221.43339 412.639202,221.817157 413.326868,222.58469 C414.526284,223.967849 414.222432,226.030595 414.262412,227.853487 C414.220796,228.487912 414.404898,229.116613 414.78216,229.628408 C415.476437,230.224041 416.430945,230.41492 417.300934,230.132102 C418.153051,229.836633 419.055608,229.714313 419.955642,229.772321 C420.926185,230.045127 421.773241,230.643641 422.354475,231.46729 C425.321031,234.945176 426.592412,238.88678 427.951751,243.212151 Z" id="Path" fill="#2D293D"></path>
                <g id="Group" opacity="0.1" transform="translate(409.400778, 202.277035)" fill="#000000">
                    <path d="M43.7467121,37.992904 C43.0181144,38.856998 42.0868317,39.5272206 41.0360311,39.9437181 C35.4387549,42.5421385 28.9778988,42.5181531 22.7809144,42.34226 C22.119956,42.376196 21.4601755,42.2557528 20.8538521,41.9904739 C19.9023152,41.4787849 19.4945136,40.3434751 19.1666732,39.3121021 C17.8073346,34.9947266 16.5359533,31.0451276 13.5693969,27.5272661 C12.9845431,26.7089197 12.1385453,26.1139734 11.1705642,25.8402916 C10.2711771,25.7831011 9.36929528,25.9026131 8.51585603,26.1920778 C7.64465986,26.4768472 6.68807818,26.2891862 5.9890856,25.6963791 C5.61554041,25.1797129 5.43193943,24.5498966 5.46933852,23.9134629 C5.42935798,22.0905711 5.73321012,20.027825 4.54178988,18.652661 C3.87011673,17.853147 2.84661479,17.5013609 2.1429572,16.7418226 C1.23491699,15.5944234 1.02635595,14.042672 1.59922179,12.6962819 C0.583715953,14.4552126 0.199902724,16.6938518 1.5192607,18.1329769 C2.19892996,18.88452 3.23042802,19.2682868 3.91809339,20.0438153 C5.11750973,21.4189793 4.81365759,23.4817254 4.85363813,25.3046173 C4.81202173,25.9390417 4.9961234,26.5677435 5.37338521,27.0795383 C6.06766282,27.6751711 7.02217057,27.8660495 7.89215953,27.5832321 C8.74520317,27.2916629 9.64697896,27.1694491 10.5468677,27.2234508 C11.5174107,27.4962574 12.3644667,28.0947711 12.9457004,28.9184204 C15.9442412,32.4362819 17.2076265,36.3778858 18.5429767,40.7032564 C18.8708171,41.7346294 19.2706226,42.8619441 20.2301556,43.3816282 C20.8360426,43.6483322 21.496164,43.7688377 22.1572179,43.7334143 C28.3462062,43.8773269 34.7830739,43.9013123 40.4043385,41.3348724 C41.455813,40.9154661 42.3890363,40.2458223 43.1230156,39.3840583 C43.4806839,38.8725245 43.7508975,38.3051446 43.9226265,37.705079 C43.8746498,37.8010207 43.818677,37.8809721 43.7467121,37.992904 Z" id="Path"></path>
                    <path d="M3.19044747,9.98592953 C3.45372682,9.68106707 3.64988511,9.32421121 3.76616732,8.93856622 C3.84613133,8.49978102 3.84613133,8.05015823 3.76616732,7.61137303 C3.49702819,5.13714372 3.72262836,2.63410073 4.42984436,0.247849332 L4.30990272,0.111931956 C3.21231825,2.93595398 2.80920146,5.98227009 3.13447471,8.9945322 C3.18473727,9.32245411 3.2034804,9.65443492 3.19044747,9.98592953 Z" id="Path"></path>
                </g>
                <path d="M424.80928,255.628603 C424.80928,255.628603 450.244903,258.027145 452.379864,254.117521" id="Path" fill="#000000" opacity="0.1"></path>
                <path d="M473.609533,243.260122 C473.609533,243.260122 487.674689,242.740437 490.969086,247.889307" id="Path" fill="#000000" opacity="0.1"></path>
                <path d="M781.147879,510.39373 C781.147879,510.39373 785.889572,516.589964 778.956946,525.952272 C772.024319,535.314581 766.315097,543.213779 768.625973,549.050231 C768.625973,549.050231 779.084883,531.668797 787.592743,531.420948 C796.100603,531.173098 790.511323,520.835383 781.147879,510.39373 Z" id="Path" fill="#790000"></path>
                <path d="M781.147879,510.39373 C781.564593,510.989998 781.890644,511.644714 782.115409,512.336549 C790.423366,522.09062 794.845214,531.197084 786.865097,531.420948 C779.428716,531.636817 770.505058,544.932734 768.370097,548.282697 C768.441069,548.553574 768.526483,548.82046 768.625973,549.082211 C768.625973,549.082211 779.084883,531.700778 787.592743,531.452928 C796.100603,531.205079 790.511323,520.835383 781.147879,510.39373 Z" id="Path" fill="#000000" opacity="0.1"></path>
                <path d="M789.967588,518.284933 C789.967588,520.467606 789.719708,522.234532 789.415856,522.234532 C789.112004,522.234532 788.872121,520.467606 788.872121,518.284933 C788.872121,516.10226 789.175973,517.133633 789.479825,517.133633 C789.783677,517.133633 789.967588,516.10226 789.967588,518.284933 Z" id="Path" fill="#FFD037"></path>
                <path d="M792.990117,520.891349 C791.071051,521.930717 789.399864,522.562333 789.255934,522.298493 C789.112004,522.034654 790.551304,520.9713 792.454377,519.899951 C794.357451,518.828603 793.613813,519.612126 793.765739,519.899951 C793.917665,520.187776 794.901187,519.843985 792.990117,520.891349 Z" id="Path" fill="#FFD037"></path>
                <path d="M756.104066,510.39373 C756.104066,510.39373 751.362374,516.589964 758.287004,525.952272 C765.211634,535.314581 770.936848,543.213779 768.625973,549.050231 C768.625973,549.050231 758.167062,531.668797 749.659202,531.420948 C741.151342,531.173098 746.740623,520.835383 756.104066,510.39373 Z" id="Path" fill="#790000"></path>
                <path d="M756.104066,510.39373 C755.687352,510.989998 755.361302,511.644714 755.136537,512.336549 C746.82858,522.09062 742.406732,531.197084 750.386848,531.420948 C757.82323,531.636817 766.738891,544.932734 768.881848,548.282697 C768.810877,548.553574 768.725463,548.82046 768.625973,549.082211 C768.625973,549.082211 758.167062,531.700778 749.659202,531.452928 C741.151342,531.205079 746.740623,520.835383 756.104066,510.39373 Z" id="Path" fill="#000000" opacity="0.1"></path>
                <path d="M747.284358,518.284933 C747.284358,520.467606 747.532237,522.234532 747.836089,522.234532 C748.139942,522.234532 748.379825,520.467606 748.379825,518.284933 C748.379825,516.10226 748.075973,517.133633 747.772121,517.133633 C747.468268,517.133633 747.284358,516.10226 747.284358,518.284933 Z" id="Path" fill="#FFD037"></path>
                <path d="M744.261829,520.891349 C746.180895,521.930717 747.852082,522.562333 747.996012,522.298493 C748.139942,522.034654 746.700642,520.9713 744.797568,519.899951 C742.894494,518.828603 743.630136,519.612126 743.486206,519.899951 C743.342276,520.187776 742.342763,519.843985 744.261829,520.891349 Z" id="Path" fill="#FFD037"></path>
                <ellipse id="Oval" fill="#790000" opacity="0.1" cx="768.617977" cy="588.866027" rx="49.5758755" ry="7.60337789"></ellipse>
                <path d="M794.141556,540.687315 L793.901673,542.622139 L793.573833,545.356476 L793.437899,546.499781 L793.102062,549.234119 L792.958132,550.377424 L792.622296,553.103767 L788.83214,584.20486 C788.488307,586.979174 783.954514,589.145857 778.485175,589.145857 L758.76677,589.145857 C753.289436,589.145857 748.763638,586.979174 748.427802,584.20486 L744.621654,553.103767 L744.293813,550.377424 L744.157879,549.234119 L743.814047,546.499781 L743.678113,545.356476 L743.342276,542.622139 L743.110389,540.687315 C742.918482,539.088287 745.373288,537.793074 748.467782,537.793074 L788.816148,537.793074 C791.878658,537.793074 794.341459,539.112272 794.141556,540.687315 Z" id="Path" fill="#65617D"></path>
                <polygon id="Path" fill="#9D9CB5" points="793.901673 542.622139 793.565837 545.356476 743.670117 545.356476 743.342276 542.622139"></polygon>
                <polygon id="Path" fill="#9D9CB5" points="793.429903 546.491786 793.102062 549.234119 744.149883 549.234119 743.814047 546.491786"></polygon>
                <polygon id="Path" fill="#9D9CB5" points="792.950136 550.369429 792.622296 553.103767 744.621654 553.103767 744.285817 550.369429"></polygon>
            </g>
        </g>
    </g>
</svg>