<?xml version="1.0" encoding="UTF-8"?>
<svg width="32px" height="32px" viewBox="0 0 32 32" version="1.1" xmlns="http://www.w3.org/2000/svg" xmlns:xlink="http://www.w3.org/1999/xlink">
    <!-- Generator: Sketch 52.6 (67491) - http://www.bohemiancoding.com/sketch -->
    <title>Group</title>
    <desc>Created with Sketch.</desc>
    <g id="Page-1" stroke="none" stroke-width="1" fill="none" fill-rule="evenodd">
        <g id="Desktop/ClipsView" transform="translate(-139.000000, -276.000000)">
            <g id="Group" transform="translate(139.000000, 276.000000)">
                <circle id="Oval" fill="#FFD900" fill-rule="nonzero" cx="16" cy="16" r="16"></circle>
                <path d="M7.573,20 L7.573,11.324 L10.567,11.324 C11.1350028,11.324 11.619998,11.3779995 12.022,11.486 C12.424002,11.5940005 12.7539987,11.747999 13.012,11.948 C13.2700013,12.148001 13.4589994,12.3899986 13.579,12.674 C13.6990006,12.9580014 13.759,13.2779982 13.759,13.634 C13.759,13.838001 13.7290003,14.0329991 13.669,14.219 C13.6089997,14.4050009 13.5160006,14.5789992 13.39,14.741 C13.2639994,14.9030008 13.104001,15.0499993 12.91,15.182 C12.715999,15.3140007 12.4850013,15.4259995 12.217,15.518 C13.409006,15.7860013 14.005,16.4299949 14.005,17.45 C14.005,17.8180018 13.9350007,18.1579984 13.795,18.47 C13.6549993,18.7820016 13.4510013,19.0509989 13.183,19.277 C12.9149987,19.5030011 12.585002,19.6799994 12.193,19.808 C11.800998,19.9360006 11.3530025,20 10.849,20 L7.573,20 Z M9.187,16.196 L9.187,18.74 L10.825,18.74 C11.1250015,18.74 11.375999,18.7040004 11.578,18.632 C11.780001,18.5599996 11.9419994,18.4640006 12.064,18.344 C12.1860006,18.2239994 12.2739997,18.0840008 12.328,17.924 C12.3820003,17.7639992 12.409,17.5940009 12.409,17.414 C12.409,17.2259991 12.3790003,17.0570008 12.319,16.907 C12.2589997,16.7569992 12.1650006,16.6290005 12.037,16.523 C11.9089994,16.4169995 11.745001,16.3360003 11.545,16.28 C11.344999,16.2239997 11.1030014,16.196 10.819,16.196 L9.187,16.196 Z M9.187,15.08 L10.477,15.08 C11.0250027,15.08 11.4409986,14.980001 11.725,14.78 C12.0090014,14.579999 12.151,14.2620022 12.151,13.826 C12.151,13.3739977 12.0230013,13.052001 11.767,12.86 C11.5109987,12.667999 11.1110027,12.572 10.567,12.572 L9.187,12.572 L9.187,15.08 Z M18.983,16.916 C18.983,17.4040024 18.9230006,17.843998 18.803,18.236 C18.6829994,18.628002 18.5040012,18.9619986 18.266,19.238 C18.0279988,19.5140014 17.7310018,19.7259993 17.375,19.874 C17.0189982,20.0220007 16.6050024,20.096 16.133,20.096 C15.9169989,20.096 15.705001,20.0830001 15.497,20.057 C15.288999,20.0309999 15.0710011,19.9900003 14.843,19.934 L14.927,18.974 C14.935,18.8859996 14.9679997,18.8150003 15.026,18.761 C15.0840003,18.7069997 15.1689994,18.68 15.281,18.68 C15.3490003,18.68 15.4379994,18.6939999 15.548,18.722 C15.6580005,18.7500001 15.7969992,18.764 15.965,18.764 C16.1930011,18.764 16.3949991,18.7310003 16.571,18.665 C16.7470009,18.5989997 16.8939994,18.4940007 17.012,18.35 C17.1300006,18.2059993 17.2189997,18.0190012 17.279,17.789 C17.3390003,17.5589989 17.369,17.2800016 17.369,16.952 L17.369,11.324 L18.983,11.324 L18.983,16.916 Z M24.327,16.916 C24.327,17.4040024 24.2670006,17.843998 24.147,18.236 C24.0269994,18.628002 23.8480012,18.9619986 23.61,19.238 C23.3719988,19.5140014 23.0750018,19.7259993 22.719,19.874 C22.3629982,20.0220007 21.9490024,20.096 21.477,20.096 C21.2609989,20.096 21.049001,20.0830001 20.841,20.057 C20.632999,20.0309999 20.4150011,19.9900003 20.187,19.934 L20.271,18.974 C20.279,18.8859996 20.3119997,18.8150003 20.37,18.761 C20.4280003,18.7069997 20.5129994,18.68 20.625,18.68 C20.6930003,18.68 20.7819995,18.6939999 20.892,18.722 C21.0020006,18.7500001 21.1409992,18.764 21.309,18.764 C21.5370011,18.764 21.7389991,18.7310003 21.915,18.665 C22.0910009,18.5989997 22.2379994,18.4940007 22.356,18.35 C22.4740006,18.2059993 22.5629997,18.0190012 22.623,17.789 C22.6830003,17.5589989 22.713,17.2800016 22.713,16.952 L22.713,11.324 L24.327,11.324 L24.327,16.916 Z" id="BJJ" fill="#353535"></path>
            </g>
        </g>
    </g>
</svg>