<?xml version="1.0" encoding="UTF-8"?>
<svg width="12px" height="13px" viewBox="0 0 12 13" version="1.1" xmlns="http://www.w3.org/2000/svg" xmlns:xlink="http://www.w3.org/1999/xlink">
    <!-- Generator: Sketch 52.6 (67491) - http://www.bohemiancoding.com/sketch -->
    <title>business-outline</title>
    <desc>Created with Sketch.</desc>
    <g id="Pages" stroke="none" stroke-width="1" fill="none" fill-rule="evenodd">
        <g id="Popup_CompanyView_v2" transform="translate(-25.000000, -146.000000)">
            <g id="Company-Card" transform="translate(0.000000, 39.000000)">
                <g id="business-outline" transform="translate(26.000000, 108.000000)">
                    <path d="M0.771428571,0 L5.4,0 C5.82604824,0 6.17142857,0.361827019 6.17142857,0.808163265 L6.17142857,11.2132653 C6.17142857,11.2690573 6.12825603,11.3142857 6.075,11.3142857 L0,11.3142857 L0,0.808163265 C0,0.361827019 0.345380336,0 0.771428571,0 Z" id="Path" stroke="#8E8E93" stroke-linecap="round" stroke-linejoin="round"></path>
                    <path d="M6.58285714,4.11428571 L9.46285714,4.11428571 C9.91730859,4.11428571 10.2857143,4.47245791 10.2857143,4.91428571 L10.2857143,11.3142857 L6.17142857,11.3142857 L6.17142857,4.51428571 C6.17142857,4.29337181 6.35563142,4.11428571 6.58285714,4.11428571 Z" id="Path" stroke="#8E8E93" stroke-linecap="round" stroke-linejoin="round"></path>
                    <path d="M1.5127162,10.1106504 C1.33073607,10.1344507 1.15380152,10.0397317 1.07269851,9.87509411 C0.991595499,9.71045656 1.02432962,9.51245151 1.15410485,9.38267628 C1.28388008,9.25290105 1.48188514,9.22016693 1.64652268,9.30126994 C1.81116023,9.38237295 1.90587924,9.5593075 1.88207893,9.74128762 C1.85688985,9.93388657 1.70531514,10.0854613 1.5127162,10.1106504 Z" id="Path" fill="#8E8E93" fill-rule="nonzero"></path>
                    <path d="M1.5127162,9.08207893 C1.33073607,9.10587924 1.15380152,9.01116023 1.07269851,8.84652268 C0.991595499,8.68188514 1.02432962,8.48388008 1.15410485,8.35410485 C1.28388008,8.22432962 1.48188514,8.1915955 1.64652268,8.27269851 C1.81116023,8.35380152 1.90587924,8.53073607 1.88207893,8.7127162 C1.85688985,8.90531514 1.70531514,9.05688985 1.5127162,9.08207893 Z" id="Path" fill="#8E8E93" fill-rule="nonzero"></path>
                    <path d="M1.5127162,5.99636465 C1.33073607,6.02016495 1.15380152,5.92544594 1.07269851,5.7608084 C0.991595499,5.59617085 1.02432962,5.3981658 1.15410485,5.26839057 C1.28388008,5.13861534 1.48188514,5.10588121 1.64652268,5.18698423 C1.81116023,5.26808724 1.90587924,5.44502179 1.88207893,5.62700191 C1.85688985,5.81960085 1.70531514,5.97117556 1.5127162,5.99636465 Z" id="Path" fill="#8E8E93" fill-rule="nonzero"></path>
                    <path d="M1.5127162,3.93922179 C1.33073607,3.96302209 1.15380152,3.86830309 1.07269851,3.70366554 C0.991595499,3.53902799 1.02432962,3.34102294 1.15410485,3.21124771 C1.28388008,3.08147248 1.48188514,3.04873836 1.64652268,3.12984137 C1.81116023,3.21094438 1.90587924,3.38787893 1.88207893,3.56985905 C1.85688985,3.762458 1.70531514,3.91403271 1.5127162,3.93922179 Z" id="Path" fill="#8E8E93" fill-rule="nonzero"></path>
                    <path d="M1.5127162,1.88207893 C1.33073607,1.90587924 1.15380152,1.81116023 1.07269851,1.64652268 C0.991595499,1.48188514 1.02432962,1.28388008 1.15410485,1.15410485 C1.28388008,1.02432962 1.48188514,0.991595499 1.64652268,1.07269851 C1.81116023,1.15380152 1.90587924,1.33073607 1.88207893,1.5127162 C1.85688985,1.70531514 1.70531514,1.85688985 1.5127162,1.88207893 Z" id="Path" fill="#8E8E93" fill-rule="nonzero"></path>
                    <path d="M2.54128762,5.99636465 C2.3593075,6.02016495 2.18237295,5.92544594 2.10126994,5.7608084 C2.02016693,5.59617085 2.05290105,5.3981658 2.18267628,5.26839057 C2.31245151,5.13861534 2.51045656,5.10588121 2.67509411,5.18698423 C2.83973166,5.26808724 2.93445066,5.44502179 2.91065036,5.62700191 C2.88546128,5.81960085 2.73388657,5.97117556 2.54128762,5.99636465 Z" id="Path" fill="#8E8E93" fill-rule="nonzero"></path>
                    <path d="M2.54128762,3.93922179 C2.3593075,3.96302209 2.18237295,3.86830309 2.10126994,3.70366554 C2.02016693,3.53902799 2.05290105,3.34102294 2.18267628,3.21124771 C2.31245151,3.08147248 2.51045656,3.04873836 2.67509411,3.12984137 C2.83973166,3.21094438 2.93445066,3.38787893 2.91065036,3.56985905 C2.88546128,3.762458 2.73388657,3.91403271 2.54128762,3.93922179 Z" id="Path" fill="#8E8E93" fill-rule="nonzero"></path>
                    <path d="M2.54128762,1.88207893 C2.3593075,1.90587924 2.18237295,1.81116023 2.10126994,1.64652268 C2.02016693,1.48188514 2.05290105,1.28388008 2.18267628,1.15410485 C2.31245151,1.02432962 2.51045656,0.991595499 2.67509411,1.07269851 C2.83973166,1.15380152 2.93445066,1.33073607 2.91065036,1.5127162 C2.88546128,1.70531514 2.73388657,1.85688985 2.54128762,1.88207893 Z" id="Path" fill="#8E8E93" fill-rule="nonzero"></path>
                    <path d="M4.76985905,10.1106504 C4.58787893,10.1344507 4.41094438,10.0397317 4.32984137,9.87509411 C4.24873836,9.71045656 4.28147248,9.51245151 4.41124771,9.38267628 C4.54102294,9.25290105 4.73902799,9.22016693 4.90366554,9.30126994 C5.06830309,9.38237295 5.16302209,9.5593075 5.13922179,9.74128762 C5.11403271,9.93388657 4.962458,10.0854613 4.76985905,10.1106504 Z" id="Path" fill="#8E8E93" fill-rule="nonzero"></path>
                    <path d="M4.76985905,9.08207893 C4.58787893,9.10587924 4.41094438,9.01116023 4.32984137,8.84652268 C4.24873836,8.68188514 4.28147248,8.48388008 4.41124771,8.35410485 C4.54102294,8.22432962 4.73902799,8.1915955 4.90366554,8.27269851 C5.06830309,8.35380152 5.16302209,8.53073607 5.13922179,8.7127162 C5.11403271,8.90531514 4.962458,9.05688985 4.76985905,9.08207893 Z" id="Path" fill="#8E8E93" fill-rule="nonzero"></path>
                    <path d="M4.76985905,5.99636465 C4.58787893,6.02016495 4.41094438,5.92544594 4.32984137,5.7608084 C4.24873836,5.59617085 4.28147248,5.3981658 4.41124771,5.26839057 C4.54102294,5.13861534 4.73902799,5.10588121 4.90366554,5.18698423 C5.06830309,5.26808724 5.16302209,5.44502179 5.13922179,5.62700191 C5.11403271,5.81960085 4.962458,5.97117556 4.76985905,5.99636465 Z" id="Path" fill="#8E8E93" fill-rule="nonzero"></path>
                    <path d="M5.01808861,3.81808861 C5.18503696,3.65114026 5.18435814,3.3797847 5.01657244,3.21199899 C4.84878673,3.04421329 4.57743117,3.04353447 4.41048282,3.21048282 C4.24353447,3.37743117 4.24421329,3.64878673 4.41199899,3.81657244 C4.5797847,3.98435814 4.85114026,3.98503696 5.01808861,3.81808861 Z" id="Oval" fill="#8E8E93" fill-rule="nonzero"></path>
                    <path d="M4.76985905,1.88207893 C4.58787893,1.90587924 4.41094438,1.81116023 4.32984137,1.64652268 C4.24873836,1.48188514 4.28147248,1.28388008 4.41124771,1.15410485 C4.54102294,1.02432962 4.73902799,0.991595499 4.90366554,1.07269851 C5.06830309,1.15380152 5.16302209,1.33073607 5.13922179,1.5127162 C5.11403271,1.70531514 4.962458,1.85688985 4.76985905,1.88207893 Z" id="Path" fill="#8E8E93" fill-rule="nonzero"></path>
                    <path d="M8.65714286,9.25714286 C8.42044939,9.25714286 8.22857143,9.44902082 8.22857143,9.68571429 C8.22857143,9.92240775 8.42044939,10.1142857 8.65714286,10.1142857 C8.89383632,10.1142857 9.08571429,9.92240775 9.08571429,9.68571429 C9.08571429,9.44902082 8.89383632,9.25714286 8.65714286,9.25714286 Z" id="Path" fill="#8E8E93" fill-rule="nonzero"></path>
                    <path d="M8.65714286,8.22857143 C8.42044939,8.22857143 8.22857143,8.42044939 8.22857143,8.65714286 C8.22857143,8.89383632 8.42044939,9.08571429 8.65714286,9.08571429 C8.89383632,9.08571429 9.08571429,8.89383632 9.08571429,8.65714286 C9.08571429,8.42044939 8.89383632,8.22857143 8.65714286,8.22857143 Z" id="Path" fill="#8E8E93" fill-rule="nonzero"></path>
                    <path d="M8.65714286,5.14285714 C8.42044939,5.14285714 8.22857143,5.33473511 8.22857143,5.57142857 C8.22857143,5.80812204 8.42044939,6 8.65714286,6 C8.89383632,6 9.08571429,5.80812204 9.08571429,5.57142857 C9.08571429,5.33473511 8.89383632,5.14285714 8.65714286,5.14285714 Z" id="Path" fill="#8E8E93" fill-rule="nonzero"></path>
                    <path d="M7.62857143,9.25714286 C7.39187796,9.25714286 7.2,9.44902082 7.2,9.68571429 C7.2,9.92240775 7.39187796,10.1142857 7.62857143,10.1142857 C7.86526489,10.1142857 8.05714286,9.92240775 8.05714286,9.68571429 C8.05714286,9.44902082 7.86526489,9.25714286 7.62857143,9.25714286 Z" id="Path" fill="#8E8E93" fill-rule="nonzero"></path>
                    <path d="M7.62857143,8.22857143 C7.39187796,8.22857143 7.2,8.42044939 7.2,8.65714286 C7.2,8.89383632 7.39187796,9.08571429 7.62857143,9.08571429 C7.86526489,9.08571429 8.05714286,8.89383632 8.05714286,8.65714286 C8.05714286,8.42044939 7.86526489,8.22857143 7.62857143,8.22857143 Z" id="Path" fill="#8E8E93" fill-rule="nonzero"></path>
                    <path d="M7.62857143,5.14285714 C7.39187796,5.14285714 7.2,5.33473511 7.2,5.57142857 C7.2,5.80812204 7.39187796,6 7.62857143,6 C7.86526489,6 8.05714286,5.80812204 8.05714286,5.57142857 C8.05714286,5.33473511 7.86526489,5.14285714 7.62857143,5.14285714 Z" id="Path" fill="#8E8E93" fill-rule="nonzero"></path>
                    <path d="M3.29704433,9.25714286 L3.29704433,11.3142857" id="Path" stroke="#8E8E93" stroke-linecap="round" stroke-linejoin="round"></path>
                </g>
            </g>
        </g>
    </g>
</svg>